<svg xmlns="http://www.w3.org/2000/svg" xmlns:xlink="http://www.w3.org/1999/xlink" width="128" zoomAndPan="magnify" viewBox="0 0 96 95.999999" height="128" preserveAspectRatio="xMidYMid meet" version="1.0"><defs><clipPath id="65fe2e2f6f"><path d="M 2.96875 0 L 92.96875 0 L 92.96875 96 L 2.96875 96 Z M 2.96875 0 " clip-rule="nonzero"/></clipPath><clipPath id="a2c607be22"><path d="M 47 0 L 92.96875 0 L 92.96875 96 L 47 96 Z M 47 0 " clip-rule="nonzero"/></clipPath></defs><g clip-path="url(#65fe2e2f6f)"><path fill="#e23237" d="M 2.96875 16.09375 L 47.347656 0.285156 L 92.894531 15.847656 L 85.535156 74.578125 L 47.347656 95.714844 L 9.78125 74.851562 Z M 2.96875 16.09375 " fill-opacity="1" fill-rule="nonzero"/></g><g clip-path="url(#a2c607be22)"><path fill="#b52e31" d="M 92.894531 15.847656 L 47.347656 0.285156 L 47.347656 95.714844 L 85.535156 74.578125 Z M 92.894531 15.847656 " fill-opacity="1" fill-rule="nonzero"/></g><path fill="#ffffff" d="M 47.414062 11.441406 L 19.761719 72.988281 L 30.082031 72.78125 L 35.652344 58.871094 L 60.386719 58.871094 L 66.445312 72.886719 L 76.285156 73.097656 Z M 47.484375 31.199219 L 56.84375 50.753906 L 39.324219 50.753906 L 47.511719 31.199219 Z M 47.484375 31.199219 " fill-opacity="1" fill-rule="nonzero"/></svg>