<svg xmlns="http://www.w3.org/2000/svg" xmlns:xlink="http://www.w3.org/1999/xlink" width="128" zoomAndPan="magnify" viewBox="0 0 96 95.999999" height="128" preserveAspectRatio="xMidYMid meet" version="1.0"><path fill="#6420ff" d="M 36.515625 87.773438 C 30.132812 85.957031 24.519531 82.613281 19.621094 77.9375 C 18.082031 78.488281 16.515625 79.035156 14.917969 79.554688 C 14.179688 79.785156 13.4375 79.699219 12.667969 79.410156 C 11.300781 78.890625 10.472656 77.882812 9.875 76.640625 C 9.050781 74.996094 7.996094 73.496094 7.167969 71.851562 C 6.429688 70.324219 5.347656 68.996094 4.71875 67.410156 C 4.40625 66.632812 3.578125 66.113281 3.578125 65.132812 C 2.839844 63.921875 3.550781 62.855469 3.976562 61.785156 C 4.09375 61.5 4.234375 61.125 4.492188 61.007812 C 5.515625 60.546875 6.03125 59.507812 6.882812 58.875 C 7.285156 58.585938 7.710938 58.269531 8.167969 57.921875 C 7.511719 54.605469 6.941406 51.289062 6.941406 47.882812 C 6.941406 44.511719 7.539062 41.25 8.167969 38.019531 C 7.054688 36.980469 6.03125 35.972656 4.945312 35.019531 C 3.835938 34.039062 3.179688 32.828125 3.324219 31.558594 C 3.410156 30.867188 3.609375 30.117188 3.949219 29.539062 C 5.003906 27.839844 5.972656 26.050781 7 24.320312 C 7.824219 22.933594 8.535156 21.492188 9.449219 20.136719 C 9.933594 19.445312 10.21875 18.636719 10.703125 17.917969 C 11.640625 16.5625 13.523438 15.898438 15.0625 16.359375 C 16.429688 16.761719 17.710938 17.367188 19.109375 17.628906 C 19.25 17.65625 19.363281 17.859375 19.507812 18.003906 C 24.4375 13.359375 30.046875 10.042969 36.488281 8.109375 C 36.746094 7.332031 36.800781 6.496094 37.113281 5.6875 C 37.34375 5.082031 37.285156 4.332031 37.398438 3.667969 C 37.714844 1.9375 38.765625 0.929688 40.277344 0.410156 C 40.820312 0.234375 41.359375 0.0625 42.015625 0.0625 C 46.003906 0.121094 49.992188 0.121094 53.984375 0.0625 C 55.121094 0.0625 56.089844 0.523438 57.003906 1.042969 C 57.828125 1.476562 58.285156 2.398438 58.511719 3.265625 C 58.910156 4.851562 59.140625 6.464844 59.453125 8.136719 C 65.863281 9.984375 71.476562 13.300781 76.378906 17.972656 C 77.917969 17.425781 79.484375 16.878906 81.078125 16.359375 C 81.820312 16.128906 82.558594 16.214844 83.328125 16.503906 C 84.699219 17.023438 85.523438 18.03125 86.121094 19.273438 C 86.949219 20.917969 88.003906 22.417969 88.828125 24.058594 C 89.570312 25.589844 90.652344 26.914062 91.277344 28.503906 C 91.59375 29.28125 92.417969 29.800781 92.417969 30.78125 C 93.160156 31.992188 92.449219 33.058594 92.019531 34.125 C 91.90625 34.414062 91.761719 34.789062 91.507812 34.90625 C 90.480469 35.367188 89.96875 36.40625 89.113281 37.039062 C 88.714844 37.328125 88.289062 37.644531 87.832031 37.992188 C 88.488281 41.308594 89.058594 44.625 89.058594 48.027344 C 89.058594 51.402344 88.542969 54.664062 87.832031 57.894531 C 88.941406 58.929688 89.96875 59.941406 91.050781 60.894531 C 92.164062 61.875 92.816406 63.085938 92.675781 64.355469 C 92.589844 65.046875 92.417969 65.796875 92.046875 66.375 C 91.023438 68.046875 90.054688 69.777344 89.058594 71.476562 C 87.804688 73.582031 86.777344 75.863281 85.324219 77.851562 C 85.066406 78.949219 84.042969 79.035156 83.300781 79.4375 C 82.503906 79.871094 81.707031 79.757812 80.824219 79.496094 C 79.511719 79.121094 78.257812 78.457031 76.890625 78.285156 C 76.746094 78.257812 76.632812 78.054688 76.492188 77.910156 C 71.5625 82.613281 65.976562 85.957031 59.453125 87.832031 C 59.140625 89.390625 58.855469 91.003906 58.511719 92.589844 C 58.171875 94.148438 57.144531 95.128906 55.691406 95.589844 C 55.152344 95.765625 54.582031 95.9375 53.953125 95.9375 C 49.964844 95.878906 45.976562 95.878906 41.988281 95.9375 C 40.847656 95.9375 39.878906 95.476562 38.96875 94.957031 C 38.140625 94.523438 37.65625 93.601562 37.484375 92.734375 C 37.171875 91.035156 36.859375 89.449219 36.515625 87.773438 Z M 38.367188 62.363281 C 38.9375 62.046875 39.59375 61.84375 39.621094 61.152344 C 39.679688 60.113281 39.820312 59.046875 39.59375 58.066406 C 39.195312 56.394531 38.484375 54.777344 38.054688 53.105469 C 37.769531 52.039062 37.144531 51.027344 37.171875 49.875 C 36.261719 47.597656 35.691406 45.203125 34.921875 42.894531 C 34.292969 40.992188 33.839844 39.03125 33.15625 37.15625 C 32.785156 36.117188 32.699219 34.960938 32.015625 34.039062 C 31.957031 33.953125 31.929688 33.894531 31.929688 33.894531 C 31.160156 33.375 30.363281 33.550781 29.679688 33.550781 C 29.28125 33.925781 28.9375 34.242188 28.625 34.53125 C 28.59375 35.453125 27.941406 36.175781 28.054688 37.070312 C 27.058594 39.316406 26.628906 41.742188 25.804688 44.046875 C 25.375 45.230469 25.121094 46.441406 24.777344 47.652344 C 24.464844 48.867188 23.78125 49.960938 23.78125 51.257812 C 22.699219 53.710938 22.15625 56.335938 21.359375 58.902344 C 21.160156 59.539062 21.046875 60.144531 21.445312 60.75 C 21.558594 60.921875 21.5 61.179688 21.5 61.152344 C 21.957031 61.644531 22.296875 61.988281 22.582031 62.335938 C 23.125 62.335938 23.695312 62.335938 24.292969 62.335938 C 24.691406 61.816406 25.089844 61.324219 25.460938 60.835938 C 25.375 59.191406 25.71875 58.09375 26.457031 56.335938 C 29.25 56.335938 32.042969 56.335938 34.835938 56.335938 C 35.0625 57.257812 35.175781 58.152344 35.492188 58.988281 C 35.632812 59.335938 35.777344 59.679688 35.71875 60.027344 C 35.632812 61.09375 35.976562 61.929688 37.171875 62.335938 C 37.457031 62.363281 37.882812 62.363281 38.367188 62.363281 Z M 45.035156 62.363281 C 45.804688 62.304688 46.6875 62.535156 47.316406 61.902344 C 47.542969 61.613281 47.742188 61.324219 48.027344 60.921875 C 48.027344 58.039062 48.027344 55.007812 48.027344 51.980469 C 50.109375 51.980469 52.160156 51.894531 54.183594 52.007812 C 55.40625 52.066406 56.40625 51.691406 57.375 51.085938 C 57.828125 50.796875 58.226562 50.363281 58.625 49.960938 C 59.679688 48.921875 60.195312 47.652344 60.222656 46.152344 C 60.222656 43.789062 60.222656 41.453125 60.222656 39.085938 C 60.222656 38.742188 60.136719 38.367188 60.050781 38.019531 C 59.738281 36.78125 59.082031 35.855469 58.199219 35.050781 C 57.171875 34.097656 55.976562 33.519531 54.550781 33.519531 C 51.359375 33.519531 48.199219 33.519531 44.980469 33.519531 C 44.664062 33.867188 44.351562 34.214844 43.980469 34.558594 C 43.980469 43.441406 43.980469 52.382812 43.980469 61.355469 C 44.351562 61.671875 44.695312 62.019531 45.035156 62.363281 Z M 65.550781 62.363281 C 67.515625 62.363281 69.511719 62.363281 71.476562 62.363281 C 71.820312 62.019531 72.160156 61.671875 72.503906 61.355469 C 72.503906 60.804688 72.503906 60.289062 72.503906 59.738281 C 72.503906 59.679688 72.503906 59.652344 72.503906 59.625 C 72.074219 58.816406 71.417969 58.324219 70.566406 58.238281 C 70.566406 51.347656 70.566406 44.480469 70.566406 37.761719 C 71.191406 37.445312 71.734375 37.15625 72.359375 36.808594 C 72.445312 36.058594 72.503906 35.28125 72.558594 34.730469 C 72.105469 34.214844 71.789062 33.839844 71.535156 33.550781 C 69.484375 33.550781 67.488281 33.550781 65.722656 33.550781 C 65.238281 33.980469 64.894531 34.300781 64.46875 34.703125 C 64.554688 35.394531 64.667969 36.175781 64.753906 36.835938 C 65.4375 37.183594 65.976562 37.472656 66.460938 37.730469 C 66.460938 44.597656 66.460938 51.460938 66.460938 58.269531 C 66.175781 58.324219 65.863281 58.269531 65.75 58.414062 C 65.351562 58.816406 64.667969 58.929688 64.523438 59.59375 C 64.523438 60.171875 64.523438 60.75 64.523438 61.324219 C 64.867188 61.671875 65.207031 62.019531 65.550781 62.363281 Z M 65.550781 62.363281 " fill-opacity="1" fill-rule="nonzero"/><path fill="#6420ff" d="M 33.324219 51.921875 C 31.644531 51.980469 29.878906 52.007812 28.109375 52.066406 C 28.054688 52.066406 27.96875 52.183594 27.796875 52.324219 C 27.828125 50.539062 28.824219 49.09375 28.9375 47.453125 C 29.792969 46.007812 29.878906 44.308594 30.449219 42.691406 C 30.617188 42.867188 30.875 43.039062 30.875 43.183594 C 30.902344 44.421875 31.617188 45.492188 31.84375 46.671875 C 32.015625 47.480469 32.46875 48.257812 32.585938 49.066406 C 32.699219 50.105469 33.382812 50.882812 33.324219 51.921875 Z M 33.324219 51.921875 " fill-opacity="1" fill-rule="nonzero"/><path fill="#6420ff" d="M 56.261719 46.328125 C 56.0625 46.644531 55.890625 46.960938 55.664062 47.25 C 55.265625 47.710938 54.753906 47.972656 54.097656 47.941406 C 52.101562 47.914062 50.109375 47.941406 48.054688 47.941406 C 48.054688 44.511719 48.054688 41.078125 48.054688 37.558594 C 50.136719 37.558594 52.273438 37.53125 54.382812 37.558594 C 55.378906 37.589844 56.234375 38.625 56.261719 39.722656 C 56.261719 41.539062 56.261719 43.355469 56.261719 45.175781 C 56.261719 45.578125 56.261719 45.953125 56.261719 46.328125 Z M 56.261719 46.328125 " fill-opacity="1" fill-rule="nonzero"/></svg>