<svg xmlns="http://www.w3.org/2000/svg" preserveAspectRatio="xMidYMid meet" version="1.0" viewBox="0 0 375 234" zoomAndPan="magnify"><defs><clipPath id="a"><path d="M0 .004h374.996V232H0Zm0 0" clip-rule="nonzero"/></clipPath><clipPath id="b"><path d="M104 11h2.758v3H104Zm0 0" clip-rule="nonzero"/></clipPath><clipPath id="c"><path d="M104 22h2.758v3H104Zm0 0" clip-rule="nonzero"/></clipPath><clipPath id="d"><path d="M127 36h1.969v4H127Zm0 0" clip-rule="nonzero"/></clipPath><clipPath id="e"><path d="M126 47h2.969v4H126Zm0 0" clip-rule="nonzero"/></clipPath><clipPath id="f"><path d="M86 55.293h4V61h-4Zm0 0" clip-rule="nonzero"/></clipPath><clipPath id="g"><path d="M302 62h3.34v5H302Zm0 0" clip-rule="nonzero"/></clipPath><clipPath id="h"><path d="M302 73h3.34v5H302Zm0 0" clip-rule="nonzero"/></clipPath></defs><g clip-path="url(#a)"><path d="M374.996-472.102h-94.039l-93.656 121.016-93.266-121.016H-.004l187.691 242.418Zm0 230.473h-94.039l-93.656 121.016L94.035-241.63H-.004L187.687.79Zm0 230.473h-94.039l-93.656 121.015L94.035-11.156H-.004l187.691 242.418Zm0 0" fill="#00ffe0" fill-opacity="1" fill-rule="nonzero"/></g><path d="M43.977 14.809h-2.762v-.547h1.129V11.05l-1.055.574-.21-.5 1.398-.734h.515v3.87h.985v.548m-14.075-2.18c0-.047 0-.098-.004-.145l-.011-.14-1.188.883a.88.88 0 0 0 .082.207.629.629 0 0 0 .117.16.476.476 0 0 0 .16.105c.06.028.13.04.204.04a.51.51 0 0 0 .265-.071.62.62 0 0 0 .203-.211c.055-.094.098-.21.13-.348.027-.136.042-.3.042-.48Zm-1.28-.024v.133c0 .043.003.086.007.125l1.187-.875a1.175 1.175 0 0 0-.082-.199.53.53 0 0 0-.738-.223.53.53 0 0 0-.203.211 1.198 1.198 0 0 0-.129.348 2.194 2.194 0 0 0-.043.48Zm1.66.012c0 .215-.02.41-.063.586a1.43 1.43 0 0 1-.196.457.978.978 0 0 1-.328.293.986.986 0 0 1-.457.106c-.148 0-.285-.032-.41-.086a.833.833 0 0 1-.312-.262 1.226 1.226 0 0 1-.203-.45 2.602 2.602 0 0 1-.07-.644c0-.215.023-.41.066-.59a1.43 1.43 0 0 1 .195-.457.93.93 0 0 1 .324-.293.935.935 0 0 1 .453-.105.93.93 0 0 1 .41.086c.125.055.23.144.317.262.09.117.156.27.203.449.047.183.07.398.07.648m.403 13.164h-2.676v-.527h1.094v-3.11l-1.02.551-.21-.48 1.358-.715h.5v3.754h.954v.527" fill="#030" fill-opacity="1" fill-rule="nonzero"/><g clip-path="url(#b)"><path d="M106.59 13.934h-1.668v-.329h.683v-1.937l-.636.344-.13-.301.845-.445h.312v2.34h.594v.328" fill="#030" fill-opacity="1" fill-rule="nonzero"/></g><g clip-path="url(#c)"><path d="M106.273 23.668c0-.043 0-.086-.003-.129-.004-.043-.004-.086-.008-.125l-1.067.793c.02.066.043.125.07.184a.6.6 0 0 0 .106.144c.043.04.094.07.145.094a.453.453 0 0 0 .183.035c.086 0 .168-.02.239-.062a.533.533 0 0 0 .18-.192.98.98 0 0 0 .116-.308c.028-.125.04-.27.04-.434Zm-1.152-.02v.118c.004.039.004.078.008.117l1.066-.79a.826.826 0 0 0-.074-.179.475.475 0 0 0-.105-.14.473.473 0 0 0-.137-.094.525.525 0 0 0-.18-.032.456.456 0 0 0-.238.067.529.529 0 0 0-.184.187 1.06 1.06 0 0 0-.113.313 2.009 2.009 0 0 0-.043.433Zm1.492.008c0 .196-.02.371-.054.528-.04.16-.098.296-.176.41a.866.866 0 0 1-.293.265.906.906 0 0 1-.41.09.857.857 0 0 1-.368-.074.715.715 0 0 1-.285-.234 1.161 1.161 0 0 1-.18-.403 2.31 2.31 0 0 1-.062-.582c0-.191.02-.367.055-.527a1.39 1.39 0 0 1 .176-.41.817.817 0 0 1 .703-.356.87.87 0 0 1 .367.075c.11.05.207.128.285.234.078.105.137.242.18.406.043.16.062.356.062.578" fill="#030" fill-opacity="1" fill-rule="nonzero"/></g><path d="M80.645 23.688c0-.11 0-.22-.012-.325l-.024-.316-2.675 1.984c.046.168.109.324.183.465.074.14.164.266.266.367.11.102.226.176.36.235.132.054.284.086.456.086.219 0 .422-.055.598-.16a1.33 1.33 0 0 0 .457-.473 2.57 2.57 0 0 0 .289-.781c.066-.313.102-.672.102-1.082Zm-2.891-.06a7.723 7.723 0 0 0 .02.59l2.671-1.976a2.207 2.207 0 0 0-.183-.449 1.172 1.172 0 0 0-1.063-.664c-.219 0-.418.055-.594.16-.18.11-.332.266-.46.477a2.72 2.72 0 0 0-.29.78 5.253 5.253 0 0 0-.101 1.083Zm3.742.032c0 .485-.047.922-.144 1.32a3.155 3.155 0 0 1-.442 1.028 2.036 2.036 0 0 1-.73.66 2.155 2.155 0 0 1-1.028.234 2.21 2.21 0 0 1-.922-.187 1.873 1.873 0 0 1-.714-.59 2.918 2.918 0 0 1-.454-1.012 5.855 5.855 0 0 1-.16-1.453c0-.484.051-.926.149-1.324.097-.402.246-.742.441-1.027a2.04 2.04 0 0 1 .73-.664 2.15 2.15 0 0 1 1.024-.235c.34 0 .649.063.926.192.277.128.516.324.71.59.196.265.348.601.458 1.011.105.41.156.895.156 1.457m-14.59-11.023c0-.075 0-.145-.008-.219-.003-.07-.011-.14-.015-.207l-1.766 1.312c.031.11.07.211.121.309.047.09.106.172.176.238a.741.741 0 0 0 .54.211.699.699 0 0 0 .39-.105.837.837 0 0 0 .304-.313c.082-.136.149-.308.192-.515a3.47 3.47 0 0 0 .066-.711Zm-1.91-.04c0 .067.004.133.004.196 0 .07.004.133.012.195l1.765-1.308a1.356 1.356 0 0 0-.125-.297.934.934 0 0 0-.172-.23.834.834 0 0 0-.234-.153.782.782 0 0 0-.293-.05.752.752 0 0 0-.394.1.871.871 0 0 0-.301.317c-.086.14-.149.313-.195.516a3.534 3.534 0 0 0-.067.715Zm2.473.02c0 .32-.031.61-.098.871-.062.266-.16.489-.289.676a1.343 1.343 0 0 1-.484.441 1.426 1.426 0 0 1-.676.153c-.223 0-.426-.043-.61-.125a1.202 1.202 0 0 1-.468-.387 1.885 1.885 0 0 1-.301-.668c-.07-.27-.11-.59-.11-.96 0-.321.036-.614.102-.876a2.03 2.03 0 0 1 .29-.68c.128-.187.288-.332.484-.437.191-.102.418-.152.675-.152.223 0 .426.039.61.125.183.082.34.214.469.39.128.176.23.395.3.668.07.27.106.59.106.961m-.414 11.063c0-.082 0-.168-.008-.25l-.024-.242-2.039 1.519c.04.125.086.242.141.352.059.109.125.203.207.28a.812.812 0 0 0 .273.18.856.856 0 0 0 .344.067c.172 0 .32-.043.457-.125.137-.078.254-.2.352-.36.094-.16.168-.359.219-.597.054-.234.078-.512.078-.824Zm-2.207-.043c0 .074 0 .152.004.226 0 .078.003.153.011.223l2.04-1.508a1.509 1.509 0 0 0-.141-.344 1.073 1.073 0 0 0-.2-.27.87.87 0 0 0-.613-.234.866.866 0 0 0-.453.122 1.005 1.005 0 0 0-.348.363 2.01 2.01 0 0 0-.222.598 3.943 3.943 0 0 0-.078.824Zm2.855.023c0 .367-.035.703-.11 1.008a2.296 2.296 0 0 1-.335.781 1.611 1.611 0 0 1-.559.508 1.663 1.663 0 0 1-.785.176c-.258 0-.492-.047-.703-.145a1.39 1.39 0 0 1-.543-.449 2.228 2.228 0 0 1-.348-.77 4.61 4.61 0 0 1-.12-1.109c0-.37.038-.707.112-1.012.075-.304.188-.566.336-.785a1.53 1.53 0 0 1 .559-.504c.227-.12.484-.18.781-.18.258 0 .492.048.707.145.207.098.39.25.54.45.152.203.265.464.347.773.082.312.121.683.121 1.113m-1.516 16.488h-2.765v-.543h1.133v-3.214l-1.055.574-.215-.5 1.399-.735h.52v3.875h.984v.543m-14.075-2.18c0-.046-.004-.097-.008-.144-.003-.047-.003-.094-.011-.14l-1.188.882c.024.075.051.145.082.207a.559.559 0 0 0 .121.16.44.44 0 0 0 .16.106c.055.027.126.04.2.04a.51.51 0 0 0 .265-.071.586.586 0 0 0 .203-.211c.055-.094.098-.211.13-.348a2.2 2.2 0 0 0 .046-.48Zm-1.285-.023v.133c.004.043.004.086.008.129l1.187-.879a.924.924 0 0 0-.082-.2.53.53 0 0 0-.738-.222.53.53 0 0 0-.203.211 1.096 1.096 0 0 0-.125.348 2.176 2.176 0 0 0-.047.48Zm1.66.012c0 .215-.02.41-.062.586a1.43 1.43 0 0 1-.196.457.942.942 0 0 1-.328.293.97.97 0 0 1-.453.105.987.987 0 0 1-.41-.086.815.815 0 0 1-.316-.261 1.223 1.223 0 0 1-.2-.45 2.397 2.397 0 0 1-.074-.644c0-.215.024-.41.067-.59a1.43 1.43 0 0 1 .195-.457.93.93 0 0 1 .324-.293.951.951 0 0 1 .457-.105c.149 0 .285.027.41.086a.799.799 0 0 1 .313.261c.09.118.156.27.203.45.047.183.07.398.07.648m.403 13.164h-2.676v-.527h1.094v-3.11l-1.02.551-.21-.48 1.358-.715h.5v3.754h.954v.527" fill="#030" fill-opacity="1" fill-rule="nonzero"/><g clip-path="url(#d)"><path d="M128.797 39.273h-1.664v-.328h.68v-1.937l-.633.344-.133-.301.848-.446h.308v2.34h.594v.328" fill="#030" fill-opacity="1" fill-rule="nonzero"/></g><g clip-path="url(#e)"><path d="M128.484 49.008c0-.043-.004-.086-.007-.13a1.23 1.23 0 0 0-.008-.124l-1.067.793a.95.95 0 0 0 .075.183.512.512 0 0 0 .246.239.466.466 0 0 0 .183.035c.09 0 .168-.02.239-.063a.542.542 0 0 0 .183-.191.98.98 0 0 0 .113-.309c.028-.125.043-.27.043-.433Zm-1.152-.02v.117c0 .04 0 .079.008.118l1.066-.79a1.558 1.558 0 0 0-.074-.18.661.661 0 0 0-.105-.14.552.552 0 0 0-.141-.093.525.525 0 0 0-.18-.032.466.466 0 0 0-.238.067.49.49 0 0 0-.18.187 1.06 1.06 0 0 0-.117.313 2.045 2.045 0 0 0-.039.433Zm1.492.012c0 .191-.02.367-.058.527a1.27 1.27 0 0 1-.176.407.867.867 0 0 1-.293.265.848.848 0 0 1-.41.09.87.87 0 0 1-.367-.074.715.715 0 0 1-.286-.235 1.161 1.161 0 0 1-.18-.402 2.298 2.298 0 0 1-.062-.578c0-.195.02-.371.059-.531.039-.16.097-.297.176-.41a.775.775 0 0 1 .289-.262.859.859 0 0 1 .41-.094.87.87 0 0 1 .367.074c.113.051.207.13.285.235.078.105.14.242.18.406.043.16.066.355.066.582" fill="#030" fill-opacity="1" fill-rule="nonzero"/></g><path d="M102.852 49.027c0-.109 0-.218-.008-.324-.012-.11-.02-.215-.028-.316l-2.675 1.984c.05.168.109.324.183.465.074.14.164.266.27.367.105.102.222.176.36.234.132.055.284.086.452.086.219 0 .422-.054.598-.16a1.33 1.33 0 0 0 .457-.472 2.47 2.47 0 0 0 .289-.782 4.97 4.97 0 0 0 .102-1.082Zm-2.891-.058a7.723 7.723 0 0 0 .02.59l2.675-1.977a2.455 2.455 0 0 0-.183-.45 1.434 1.434 0 0 0-.266-.35 1.165 1.165 0 0 0-.8-.313c-.22 0-.419.054-.595.16a1.35 1.35 0 0 0-.457.476 2.724 2.724 0 0 0-.293.786 5.187 5.187 0 0 0-.101 1.078Zm3.742.031c0 .484-.047.922-.144 1.32a3.115 3.115 0 0 1-.438 1.028 2.08 2.08 0 0 1-.734.66c-.29.156-.633.234-1.028.234a2.21 2.21 0 0 1-.921-.187 1.834 1.834 0 0 1-.711-.59c-.2-.266-.348-.602-.457-1.012-.106-.406-.157-.894-.157-1.453 0-.484.047-.926.145-1.324.097-.403.246-.742.441-1.028a2.04 2.04 0 0 1 .735-.664 2.128 2.128 0 0 1 1.023-.234c.34 0 .645.063.922.191.277.13.516.325.71.59.196.266.349.602.458 1.012.105.41.156.895.156 1.457m-14.59-11.023c0-.075 0-.145-.004-.22-.007-.07-.011-.14-.02-.206l-1.765 1.312c.031.11.07.211.121.309.051.09.11.172.18.238a.726.726 0 0 0 .535.21.752.752 0 0 0 .395-.1.904.904 0 0 0 .3-.317c.082-.137.149-.308.192-.516.047-.203.066-.44.066-.71Zm-1.906-.04v.196c0 .07.004.133.012.195l1.765-1.308a1.571 1.571 0 0 0-.12-.297 1.063 1.063 0 0 0-.177-.23.736.736 0 0 0-.234-.153.768.768 0 0 0-.293-.05.762.762 0 0 0-.394.1.871.871 0 0 0-.301.317c-.086.14-.145.313-.192.516a3.273 3.273 0 0 0-.066.715Zm2.469.02c0 .32-.031.61-.094.871a1.97 1.97 0 0 1-.293.676 1.365 1.365 0 0 1-.48.441 1.453 1.453 0 0 1-.68.153c-.223 0-.426-.043-.61-.125a1.202 1.202 0 0 1-.468-.387 1.885 1.885 0 0 1-.301-.668c-.07-.27-.105-.59-.105-.961 0-.32.03-.613.097-.875.063-.266.164-.488.29-.68.128-.187.292-.332.484-.437a1.43 1.43 0 0 1 .675-.153c.227 0 .43.04.61.126.183.082.34.214.469.39.128.176.23.395.3.668.07.27.106.59.106.961m-.414 11.063c0-.083 0-.168-.008-.25-.008-.079-.012-.16-.02-.243l-2.043 1.52c.04.125.086.242.141.351.059.11.129.204.207.282a.89.89 0 0 0 .621.246.883.883 0 0 0 .457-.125c.137-.078.25-.2.348-.36.094-.16.168-.359.219-.597.054-.235.078-.512.078-.824Zm-2.203-.043v.226c0 .078.004.152.011.223l2.043-1.508a1.973 1.973 0 0 0-.14-.344 1.19 1.19 0 0 0-.203-.27.856.856 0 0 0-.61-.234.87.87 0 0 0-.457.121 1.038 1.038 0 0 0-.348.364c-.093.16-.168.36-.218.597a3.715 3.715 0 0 0-.078.825Zm2.855.023c0 .367-.039.703-.113 1.008a2.296 2.296 0 0 1-.336.781 1.577 1.577 0 0 1-.559.508 1.663 1.663 0 0 1-.785.176c-.258 0-.492-.047-.703-.145a1.417 1.417 0 0 1-.543-.45 2.156 2.156 0 0 1-.344-.769A4.407 4.407 0 0 1 86.406 49c0-.371.04-.707.114-1.012.074-.304.187-.566.335-.785a1.53 1.53 0 0 1 .56-.504c.226-.12.483-.18.78-.18.262 0 .496.047.707.145.211.098.391.25.54.45.152.202.265.464.347.773.082.312.125.683.125 1.113m126.492 92.852c0-.04-.004-.082-.008-.122-.003-.042-.003-.082-.011-.12l-1.008.75c.02.062.043.12.07.175a.52.52 0 0 0 .102.137.429.429 0 0 0 .304.121c.083 0 .16-.02.227-.059a.543.543 0 0 0 .172-.18.918.918 0 0 0 .11-.292 1.86 1.86 0 0 0 .042-.41Zm-1.094-.02v.11c0 .038.004.078.008.109l1.008-.746a.723.723 0 0 0-.168-.301.45.45 0 0 0-.527-.059.489.489 0 0 0-.172.184.918.918 0 0 0-.11.293 1.852 1.852 0 0 0-.038.41Zm1.415.008c0 .183-.02.351-.059.5-.035.152-.09.281-.164.387a.77.77 0 0 1-.664.34.77.77 0 0 1-.348-.075.69.69 0 0 1-.27-.219 1.117 1.117 0 0 1-.171-.382 2.275 2.275 0 0 1-.063-.551c0-.18.02-.348.059-.5.035-.149.09-.278.164-.387a.807.807 0 0 1 .277-.25.819.819 0 0 1 .387-.09.86.86 0 0 1 .352.075.684.684 0 0 1 .265.222c.074.102.133.227.172.383.04.152.063.336.063.547m.195 12.62h-1.996v-.39h.816v-2.32l-.762.41-.156-.36 1.012-.53h.375v2.8h.71v.39m-.198 9.481c0-.066-.004-.132-.008-.195-.004-.062-.012-.129-.016-.187l-1.597 1.187c.027.098.062.191.109.277.043.086.098.16.156.22a.682.682 0 0 0 .488.191.695.695 0 0 0 .36-.094c.105-.067.2-.16.273-.285a1.54 1.54 0 0 0 .172-.465 2.92 2.92 0 0 0 .063-.649Zm-1.73-.035v.18c0 .059.003.117.01.172l1.602-1.18a1.216 1.216 0 0 0-.113-.27.87.87 0 0 0-.156-.21.65.65 0 0 0-.215-.137.645.645 0 0 0-.266-.05.658.658 0 0 0-.355.097.758.758 0 0 0-.273.281 1.707 1.707 0 0 0-.176.473 3.08 3.08 0 0 0-.059.644Zm2.237.02c0 .289-.027.55-.085.789a1.758 1.758 0 0 1-.266.613 1.208 1.208 0 0 1-.434.399c-.175.09-.382.14-.617.14a1.26 1.26 0 0 1-.55-.117 1.049 1.049 0 0 1-.426-.352 1.703 1.703 0 0 1-.274-.605 3.528 3.528 0 0 1-.094-.867c0-.293.028-.555.086-.793a1.86 1.86 0 0 1 .266-.617c.113-.168.262-.301.437-.395a1.28 1.28 0 0 1 .614-.14c.203 0 .386.039.55.113.168.074.31.195.426.351.117.16.211.364.274.61.062.242.093.535.093.87m.047 13.165h-2.675v-.528h1.093v-3.113l-1.02.555-.21-.484 1.36-.715h.5v3.757h.952v.528m-13.574-11.54h-2.058v-.405h.843v-2.391l-.785.43-.16-.371 1.043-.551h.387v2.883h.73v.406m.16 11.281h-2.36v-.465h.966v-2.738l-.899.488-.183-.426 1.195-.629h.441v3.305h.84v.465m-14-57.062c0-.04-.004-.079-.008-.114-.003-.035-.003-.074-.007-.11l-.926.688a.75.75 0 0 0 .062.164.42.42 0 0 0 .094.125.398.398 0 0 0 .488.055.431.431 0 0 0 .16-.164.777.777 0 0 0 .098-.27c.024-.109.04-.234.04-.374Zm-1.004-.02v.102c0 .035 0 .07.008.101l.926-.683a.815.815 0 0 0-.063-.157.499.499 0 0 0-.214-.203.398.398 0 0 0-.157-.027.42.42 0 0 0-.207.055.486.486 0 0 0-.156.164.832.832 0 0 0-.101.273 1.774 1.774 0 0 0-.036.375Zm1.297.008c0 .168-.015.32-.05.46a1.01 1.01 0 0 1-.153.356.672.672 0 0 1-.254.227.695.695 0 0 1-.355.086.783.783 0 0 1-.32-.067.626.626 0 0 1-.247-.207.922.922 0 0 1-.156-.347 1.951 1.951 0 0 1-.059-.508c0-.164.02-.32.051-.457.035-.14.086-.258.157-.356a.654.654 0 0 1 .253-.23.724.724 0 0 1 .356-.082.76.76 0 0 1 .316.066c.098.043.18.114.25.203.067.094.118.211.157.352.035.144.054.312.054.504m-.16 11.055c0-.047-.004-.094-.004-.141-.008-.047-.008-.094-.012-.14l-1.18.874c.024.074.048.14.083.203a.548.548 0 0 0 .277.266.519.519 0 0 0 .2.035.5.5 0 0 0 .261-.066.557.557 0 0 0 .203-.211 1.17 1.17 0 0 0 .13-.344 2.45 2.45 0 0 0 .042-.476Zm-1.273-.024v.133c.004.043.004.086.011.125l1.176-.871a1.275 1.275 0 0 0-.082-.196.501.501 0 0 0-.273-.254.448.448 0 0 0-.196-.038.496.496 0 0 0-.261.07.557.557 0 0 0-.203.21 1.215 1.215 0 0 0-.13.345 2.45 2.45 0 0 0-.042.476Zm1.648.012c0 .21-.023.406-.066.582a1.29 1.29 0 0 1-.192.453.914.914 0 0 1-.777.395.977.977 0 0 1-.402-.086.799.799 0 0 1-.317-.258 1.303 1.303 0 0 1-.199-.446 2.569 2.569 0 0 1-.07-.64c0-.211.023-.406.066-.582.043-.176.106-.328.191-.453a.93.93 0 0 1 .325-.293.98.98 0 0 1 .453-.102.9.9 0 0 1 .402.086c.125.055.227.14.317.258.085.117.152.265.199.445.047.18.07.395.07.64m.184 12.825h-2.25v-.445h.922v-2.614l-.856.465-.176-.406 1.14-.598h.423v3.153h.797v.445m-.25 9.277c0-.07-.004-.14-.008-.214-.008-.07-.012-.137-.02-.208l-1.746 1.297c.035.11.074.211.121.305a.92.92 0 0 0 .176.238.746.746 0 0 0 .234.157.788.788 0 0 0 .297.054.741.741 0 0 0 .391-.105.868.868 0 0 0 .297-.309c.082-.137.144-.304.191-.508.043-.203.067-.441.067-.707Zm-1.89-.039c0 .067.003.133.003.196 0 .066.004.129.012.191l1.742-1.293a1.637 1.637 0 0 0-.117-.293.935.935 0 0 0-.172-.226.788.788 0 0 0-.23-.153.783.783 0 0 0-.981.363 1.773 1.773 0 0 0-.192.512 3.413 3.413 0 0 0-.066.703Zm2.444.02a3.7 3.7 0 0 1-.093.863c-.067.258-.16.484-.29.668a1.35 1.35 0 0 1-.476.434 1.41 1.41 0 0 1-.672.152c-.223 0-.422-.043-.601-.125a1.208 1.208 0 0 1-.465-.383 1.91 1.91 0 0 1-.297-.66 3.758 3.758 0 0 1-.102-.95c0-.316.032-.605.094-.862a1.97 1.97 0 0 1 .29-.672 1.32 1.32 0 0 1 .476-.434 1.41 1.41 0 0 1 .668-.152c.222 0 .422.043.605.125.18.082.332.21.461.386.129.172.227.391.297.66.07.266.105.583.105.95m.512 14.07h-3.805v-.754h1.559v-4.422l-1.453.79-.297-.688 1.93-1.016h.715v5.336h1.351v.754m-.797 8.035c0-.09-.004-.183-.008-.273l-.023-.266-2.246 1.668c.039.14.09.274.152.39.063.122.137.223.227.31a.974.974 0 0 0 .683.269.975.975 0 0 0 .504-.137c.149-.086.278-.219.383-.398.106-.176.188-.39.242-.653a4.18 4.18 0 0 0 .086-.91Zm-2.43-.047c0 .082 0 .168.004.25 0 .086.004.168.012.246l2.246-1.664a1.793 1.793 0 0 0-.152-.375 1.312 1.312 0 0 0-.223-.296 1.044 1.044 0 0 0-.297-.192.972.972 0 0 0-.375-.07.951.951 0 0 0-.5.137 1.046 1.046 0 0 0-.382.398c-.106.18-.188.395-.247.656a4.24 4.24 0 0 0-.085.91Zm3.145.024c0 .406-.039.777-.121 1.113a2.613 2.613 0 0 1-.371.86 1.732 1.732 0 0 1-.613.554c-.246.133-.536.2-.864.2a1.87 1.87 0 0 1-.777-.16 1.576 1.576 0 0 1-.598-.497 2.393 2.393 0 0 1-.379-.847 4.864 4.864 0 0 1-.136-1.223c0-.406.043-.778.125-1.113.082-.336.207-.622.367-.864a1.74 1.74 0 0 1 .617-.554c.246-.133.535-.2.863-.2.282 0 .54.055.774.16.234.11.433.274.597.497.165.226.293.507.383.851.09.344.133.75.133 1.223m-13.988-44.137c0-.09-.004-.18-.012-.27a5.484 5.484 0 0 0-.02-.261l-2.203 1.637c.04.14.09.265.153.382a1.038 1.038 0 0 0 .512.496c.113.047.238.07.378.07a.93.93 0 0 0 .493-.132c.148-.086.273-.219.378-.39a2.26 2.26 0 0 0 .239-.645 4.3 4.3 0 0 0 .082-.887Zm-2.383-.05c0 .081 0 .163.004.25 0 .081.004.16.012.238l2.203-1.63a1.759 1.759 0 0 0-.153-.37 1.085 1.085 0 0 0-.218-.29.919.919 0 0 0-.656-.258.93.93 0 0 0-.493.134c-.144.09-.273.218-.375.39a2.22 2.22 0 0 0-.242.645 4.323 4.323 0 0 0-.082.89Zm3.082.027c0 .398-.04.761-.117 1.09a2.676 2.676 0 0 1-.363.843 1.733 1.733 0 0 1-.602.543 1.775 1.775 0 0 1-.848.196 1.87 1.87 0 0 1-.761-.157 1.55 1.55 0 0 1-.586-.488 2.427 2.427 0 0 1-.375-.828 4.924 4.924 0 0 1-.13-1.2c0-.398.04-.765.122-1.093.082-.328.2-.61.363-.848.156-.234.36-.414.602-.543a1.77 1.77 0 0 1 .843-.195c.282 0 .532.055.762.16.227.106.422.266.586.485.16.218.285.496.375.835.086.336.129.735.129 1.2m-1.473 11.047c0-.036-.004-.067-.004-.098-.003-.031-.003-.059-.007-.09l-.77.57a.7.7 0 0 0 .055.137c.02.04.047.074.074.106a.33.33 0 0 0 .234.09.345.345 0 0 0 .305-.184.738.738 0 0 0 .082-.223c.02-.09.031-.191.031-.308Zm-.832-.02v.086c0 .031.004.059.004.086l.77-.57a.64.64 0 0 0-.055-.13.351.351 0 0 0-.176-.168.344.344 0 0 0-.43.16.947.947 0 0 0-.085.227c-.02.09-.028.192-.028.309Zm1.078.008c0 .14-.015.27-.043.383a.836.836 0 0 1-.128.293.58.58 0 0 1-.504.258.588.588 0 0 1-.266-.055.534.534 0 0 1-.207-.168.898.898 0 0 1-.129-.29 1.676 1.676 0 0 1-.047-.421c0-.137.016-.266.043-.38a.895.895 0 0 1 .125-.296.655.655 0 0 1 .211-.191.652.652 0 0 1 .297-.067c.098 0 .184.02.266.055a.5.5 0 0 1 .203.172.793.793 0 0 1 .133.289c.03.121.046.258.046.418m.676 13.039h-2.52v-.496h1.032v-2.93l-.961.524-.195-.454 1.277-.675h.473v3.535h.894v.496m-.285 9.066c0-.078-.004-.156-.008-.238a6.723 6.723 0 0 1-.02-.23l-1.948 1.449c.035.12.078.234.132.34.055.101.121.191.196.265a.822.822 0 0 0 .593.235c.16 0 .305-.04.438-.118a.97.97 0 0 0 .332-.343 1.87 1.87 0 0 0 .21-.57c.052-.227.075-.489.075-.79Zm-2.11-.039c0 .07.005.145.005.215 0 .074.004.145.011.215l1.95-1.445a1.61 1.61 0 0 0-.133-.325 1.018 1.018 0 0 0-.196-.257.817.817 0 0 0-.257-.168.856.856 0 0 0-.325-.059.82.82 0 0 0-.433.117.978.978 0 0 0-.336.344 2.05 2.05 0 0 0-.211.574 3.898 3.898 0 0 0-.074.79Zm2.731.02c0 .351-.035.672-.105.965-.07.289-.18.539-.32.746-.145.207-.32.367-.536.484a1.585 1.585 0 0 1-.75.168c-.246 0-.472-.047-.672-.137a1.332 1.332 0 0 1-.52-.43 2.094 2.094 0 0 1-.331-.734 4.245 4.245 0 0 1-.117-1.062c0-.352.035-.676.109-.965.07-.293.18-.543.32-.75.14-.211.32-.371.535-.484.211-.114.461-.172.747-.172.246 0 .472.047.675.14.2.094.375.235.516.43.144.195.254.441.332.738.078.301.117.653.117 1.063m-13.531-8.961h-2.625v-.52h1.074v-3.047l-1 .543-.203-.472 1.328-.7h.492v3.676h.934v.52m-.18 8.984c0-.094-.004-.183-.008-.273-.007-.094-.015-.18-.023-.266l-2.246 1.668c.043.14.094.27.156.39.063.118.137.22.223.305.09.086.187.153.3.2.114.047.243.07.387.07a.948.948 0 0 0 .5-.133c.153-.09.278-.222.383-.398.106-.176.188-.395.246-.657.055-.261.082-.562.082-.906Zm-2.426-.05v.253c.004.082.008.164.016.243l2.246-1.66a2.394 2.394 0 0 0-.152-.38 1.328 1.328 0 0 0-.227-.292.946.946 0 0 0-.668-.262.962.962 0 0 0-.504.133 1.12 1.12 0 0 0-.382.402 2.112 2.112 0 0 0-.243.656 4.176 4.176 0 0 0-.086.906Zm3.141.027c0 .406-.039.773-.121 1.11a2.5 2.5 0 0 1-.371.859 1.71 1.71 0 0 1-.613.558 1.828 1.828 0 0 1-.864.195 1.87 1.87 0 0 1-.777-.16 1.554 1.554 0 0 1-.594-.492 2.467 2.467 0 0 1-.383-.848 4.9 4.9 0 0 1-.132-1.222c0-.406.039-.778.12-1.113.087-.336.208-.625.372-.864a1.7 1.7 0 0 1 .613-.554c.25-.133.535-.2.863-.2.282 0 .543.055.774.16.234.11.433.274.597.497.168.222.293.507.383.851.09.344.133.75.133 1.223m-.918 12.535h-1.894v-.375h.777v-2.2l-.723.395-.144-.344.957-.503h.355v2.652h.672v.375m-13.32-56.68c0-.07 0-.144-.008-.21-.004-.075-.012-.141-.016-.208l-1.738 1.293c.031.11.07.211.117.301a.92.92 0 0 0 .176.238.676.676 0 0 0 .234.153.7.7 0 0 0 .293.058.741.741 0 0 0 .391-.105.868.868 0 0 0 .297-.309c.082-.137.144-.305.187-.508.047-.203.067-.437.067-.703Zm-1.88-.039v.195c0 .067.005.13.013.188l1.742-1.285a1.833 1.833 0 0 0-.121-.293 1.013 1.013 0 0 0-.172-.23.802.802 0 0 0-.23-.149.768.768 0 0 0-.294-.05c-.14 0-.27.034-.386.1a.868.868 0 0 0-.297.31c-.082.14-.145.308-.188.511a3.162 3.162 0 0 0-.066.703Zm2.434.02c0 .316-.03.601-.093.86a1.93 1.93 0 0 1-.285.667 1.4 1.4 0 0 1-.477.434 1.404 1.404 0 0 1-.668.152 1.43 1.43 0 0 1-.602-.125 1.208 1.208 0 0 1-.464-.383 1.889 1.889 0 0 1-.297-.656 3.993 3.993 0 0 1-.102-.95c0-.316.031-.6.098-.863.062-.261.156-.48.285-.668.125-.187.285-.328.477-.43.191-.1.414-.152.668-.152.218 0 .417.04.601.122.18.085.332.214.461.386.129.172.227.39.297.66.066.266.101.582.101.946m-.152 13.039h-2.523v-.496h1.03v-2.934l-.96.524-.195-.458 1.277-.671h.473v3.539h.898v.496m-.277 9.062c0-.082 0-.16-.008-.242a4.225 4.225 0 0 0-.02-.23l-1.968 1.46a1.8 1.8 0 0 0 .136.344c.055.106.121.196.196.27a.875.875 0 0 0 .265.176.903.903 0 0 0 .774-.055c.133-.078.246-.2.34-.352.09-.152.16-.343.21-.574.051-.23.075-.496.075-.797Zm-2.13-.043c0 .075.005.149.005.223 0 .07.004.144.012.21l1.968-1.452a1.513 1.513 0 0 0-.136-.332.936.936 0 0 0-.196-.262.817.817 0 0 0-.258-.168.877.877 0 0 0-.328-.059.86.86 0 0 0-.441.118 1.005 1.005 0 0 0-.336.351 1.936 1.936 0 0 0-.215.574c-.05.23-.074.497-.074.797Zm2.759.024c0 .355-.035.68-.106.972-.074.293-.18.543-.324.754a1.54 1.54 0 0 1-.543.489 1.546 1.546 0 0 1-.754.171c-.25 0-.476-.046-.68-.136a1.4 1.4 0 0 1-.527-.434 2.158 2.158 0 0 1-.332-.746 4.31 4.31 0 0 1-.117-1.07c0-.36.035-.684.11-.977.07-.297.179-.547.32-.758.144-.21.324-.375.543-.488a1.59 1.59 0 0 1 .753-.172c.25 0 .477.047.68.14.203.095.379.24.524.434.144.196.257.446.335.747.079.3.118.66.118 1.074m76.855-18.914h-3.988v-.79h1.633v-4.628l-1.52.824-.308-.719 2.015-1.062h.75v5.586h1.418v.789m-.863 9.73h-2.344v-.465h.957v-2.722l-.89.484-.184-.422 1.187-.625h.442v3.285h.832v.465m.351 44.703h-3.015v-.597h1.234v-3.508l-1.148.625-.239-.543 1.532-.805h.566v4.23h1.07v.598m-72.71-97.316c0-.04-.004-.078-.004-.121l-.012-.121-1.008.754c.02.062.04.12.066.171a.541.541 0 0 0 .102.141.636.636 0 0 0 .137.09.465.465 0 0 0 .398-.031.495.495 0 0 0 .172-.176c.047-.082.082-.18.11-.297.023-.117.038-.254.038-.41Zm-1.094-.02c0 .04 0 .075.004.114 0 .039 0 .074.004.109l1.007-.746a.717.717 0 0 0-.066-.168.443.443 0 0 0-.102-.133.443.443 0 0 0-.132-.09.46.46 0 0 0-.395.032.477.477 0 0 0-.172.18 1.02 1.02 0 0 0-.11.292 2.12 2.12 0 0 0-.038.41Zm1.414.012c0 .184-.016.348-.055.496a1.313 1.313 0 0 1-.164.39.844.844 0 0 1-.277.25.807.807 0 0 1-.387.087.856.856 0 0 1-.352-.07.694.694 0 0 1-.27-.223 1.243 1.243 0 0 1-.171-.383 2.442 2.442 0 0 1-.004-1.047 1.17 1.17 0 0 1 .168-.387.785.785 0 0 1 .277-.254.807.807 0 0 1 .387-.085.85.85 0 0 1 .348.07c.105.05.195.125.27.222.07.102.128.23.171.383.04.157.059.34.059.551m.195 12.621h-1.996v-.394h.816v-2.32l-.761.413-.153-.359 1.012-.531h.371v2.797h.711v.394m-.2 9.48c0-.066 0-.132-.003-.195-.008-.066-.012-.129-.02-.191l-1.597 1.187c.027.102.066.196.11.278a.773.773 0 0 0 .374.363c.078.031.172.05.274.05.132 0 .25-.034.355-.097.11-.062.2-.156.277-.281a1.68 1.68 0 0 0 .172-.469 3.18 3.18 0 0 0 .059-.644Zm-1.726-.038v.183c0 .059.004.117.008.172l1.602-1.184a1.687 1.687 0 0 0-.11-.27.968.968 0 0 0-.16-.21.7.7 0 0 0-.21-.137.715.715 0 0 0-.266-.047.705.705 0 0 0-.36.094.836.836 0 0 0-.273.285 1.635 1.635 0 0 0-.172.469 3.18 3.18 0 0 0-.059.645Zm2.239.02c0 .288-.032.554-.086.792a1.906 1.906 0 0 1-.266.613 1.25 1.25 0 0 1-.437.395 1.28 1.28 0 0 1-.614.14c-.203 0-.386-.039-.554-.113a1.176 1.176 0 0 1-.426-.351 1.733 1.733 0 0 1-.27-.606 3.368 3.368 0 0 1-.097-.87c0-.29.03-.556.09-.794a1.83 1.83 0 0 1 .261-.613c.117-.172.266-.305.438-.399.175-.093.382-.14.613-.14.203 0 .39.039.555.117.164.074.304.191.425.352.118.16.207.359.27.605.066.246.098.535.098.871m.047 13.164h-2.68v-.527h1.097v-3.113l-1.023.554-.207-.48 1.355-.715h.504v3.754h.953v.527m-13.574-11.535h-2.058v-.406h.843v-2.39l-.785.425-.16-.371 1.04-.547h.39v2.883h.73v.406m.157 11.281h-2.356v-.465h.965v-2.742l-.899.492-.183-.425 1.191-.63h.446v3.305h.836v.465m-14-57.066c0-.035 0-.074-.004-.11-.004-.039-.004-.074-.008-.113l-.93.692c.016.058.04.109.063.16.027.05.058.093.093.129.04.03.079.062.125.078a.418.418 0 0 0 .368-.024.486.486 0 0 0 .156-.164.832.832 0 0 0 .101-.273 1.71 1.71 0 0 0 .036-.375Zm-1.004-.02c0 .035 0 .07.004.106 0 .035 0 .07.003.101l.93-.687a.94.94 0 0 0-.066-.156.479.479 0 0 0-.094-.121.308.308 0 0 0-.121-.079.399.399 0 0 0-.36.023.474.474 0 0 0-.16.169c-.043.07-.074.164-.101.27a1.8 1.8 0 0 0-.035.374Zm1.3.012c0 .168-.02.32-.05.457-.036.14-.086.258-.153.356a.752.752 0 0 1-.254.23.746.746 0 0 1-.355.082.757.757 0 0 1-.32-.066.616.616 0 0 1-.246-.203.916.916 0 0 1-.16-.352 1.912 1.912 0 0 1-.055-.504c0-.168.015-.32.05-.46.036-.138.086-.255.153-.356a.752.752 0 0 1 .254-.23.735.735 0 0 1 .355-.083.78.78 0 0 1 .32.067c.098.046.18.113.247.207.07.09.12.207.16.351.035.14.054.309.054.504m-.164 11.055c0-.051 0-.098-.004-.145l-.011-.14-1.176.875c.02.074.047.144.078.203a.662.662 0 0 0 .121.164.61.61 0 0 0 .156.105.54.54 0 0 0 .204.035.506.506 0 0 0 .261-.07.597.597 0 0 0 .2-.207c.058-.094.097-.207.128-.344a2.18 2.18 0 0 0 .043-.476Zm-1.27-.028v.133c0 .047.005.086.009.13l1.175-.872a.822.822 0 0 0-.195-.352.565.565 0 0 0-.156-.101.526.526 0 0 0-.195-.035.52.52 0 0 0-.465.277 1.198 1.198 0 0 0-.13.348 2.409 2.409 0 0 0-.042.472Zm1.645.016c0 .21-.02.406-.062.582a1.381 1.381 0 0 1-.192.45.93.93 0 0 1-.324.292.98.98 0 0 1-.453.102.924.924 0 0 1-.406-.086.788.788 0 0 1-.313-.258 1.27 1.27 0 0 1-.199-.445 2.53 2.53 0 0 1-.07-.637c0-.215.02-.41.062-.586.047-.176.11-.324.196-.45a.915.915 0 0 1 .32-.292.946.946 0 0 1 .453-.106c.148 0 .285.032.406.086a.822.822 0 0 1 .313.258c.086.121.152.266.199.45.05.18.07.39.07.64m.188 12.82h-2.25v-.445h.922v-2.61l-.86.465-.172-.406 1.137-.601h.422v3.152h.8v.445m-.253 9.278c0-.07 0-.141-.008-.211-.004-.07-.012-.14-.016-.207l-1.746 1.297c.032.109.07.21.118.3a.93.93 0 0 0 .18.243.738.738 0 0 0 .531.207c.14 0 .27-.036.39-.106a.856.856 0 0 0 .297-.305c.082-.136.145-.308.188-.511.042-.203.066-.438.066-.707Zm-1.887-.035c0 .062 0 .128.004.195 0 .062.004.129.012.187l1.742-1.289a1.244 1.244 0 0 0-.121-.293.866.866 0 0 0-.172-.23.753.753 0 0 0-.52-.203.741.741 0 0 0-.39.105.837.837 0 0 0-.297.309c-.082.14-.148.308-.191.511a3.426 3.426 0 0 0-.067.707Zm2.442.015c0 .317-.032.606-.094.863-.063.262-.16.485-.285.668a1.34 1.34 0 0 1-.48.434c-.192.102-.41.152-.669.152-.222 0-.422-.039-.605-.12a1.248 1.248 0 0 1-.465-.388 1.928 1.928 0 0 1-.297-.656 4.004 4.004 0 0 1-.101-.953c0-.312.03-.601.097-.863.063-.262.16-.485.285-.668a1.31 1.31 0 0 1 .48-.434c.188-.101.415-.152.669-.152.222 0 .422.039.601.121.18.086.336.215.465.387a2 2 0 0 1 .297.664c.07.265.102.582.102.945m.515 14.07h-3.804v-.75h1.554v-4.425l-1.449.789-.297-.684 1.93-1.016h.715v5.336h1.351v.75m-.797 8.04a3.69 3.69 0 0 0-.011-.278l-.024-.262-2.246 1.668c.043.141.094.27.156.387.063.121.137.223.223.309.09.086.191.152.3.199.114.047.243.07.388.07a.958.958 0 0 0 .5-.133c.152-.09.277-.222.382-.398.106-.176.188-.395.246-.656.055-.262.086-.563.086-.906Zm-2.43-.051c0 .086 0 .168.005.254 0 .082.004.164.011.242l2.246-1.66a1.783 1.783 0 0 0-.152-.38 1.22 1.22 0 0 0-.226-.292.938.938 0 0 0-.668-.262.972.972 0 0 0-.504.133 1.12 1.12 0 0 0-.383.402 2.112 2.112 0 0 0-.242.656 4.176 4.176 0 0 0-.086.907Zm3.145.027c0 .402-.043.773-.125 1.11a2.497 2.497 0 0 1-.367.859 1.793 1.793 0 0 1-.617.558 1.817 1.817 0 0 1-.863.196 1.8 1.8 0 0 1-.774-.16 1.503 1.503 0 0 1-.598-.493 2.454 2.454 0 0 1-.382-.851c-.09-.34-.133-.75-.133-1.219 0-.406.039-.777.12-1.113.087-.336.208-.625.372-.864.164-.242.371-.425.617-.558.246-.129.531-.195.86-.195.285 0 .543.054.777.16.23.105.43.273.598.496.164.222.289.508.379.851.09.344.136.75.136 1.223m-13.988-44.14c0-.09-.004-.18-.012-.27l-.023-.258-2.2 1.637c.04.137.09.265.149.383.063.113.137.214.223.296a.917.917 0 0 0 .672.266c.18 0 .343-.043.492-.129.144-.09.27-.219.375-.39a2.06 2.06 0 0 0 .238-.645c.059-.254.086-.555.086-.89Zm-2.383-.047v.246c.004.082.008.164.016.238l2.203-1.629a2.109 2.109 0 0 0-.152-.371 1.251 1.251 0 0 0-.22-.29 1.043 1.043 0 0 0-.292-.187.956.956 0 0 0-.363-.066.954.954 0 0 0-.493.129 1.15 1.15 0 0 0-.379.394 2.137 2.137 0 0 0-.238.645c-.055.258-.082.55-.082.89Zm3.082.023c0 .398-.039.762-.12 1.09-.08.328-.2.61-.36.844a1.723 1.723 0 0 1-.606.546 1.774 1.774 0 0 1-.847.192c-.278 0-.532-.05-.762-.156a1.499 1.499 0 0 1-.582-.485c-.164-.219-.285-.496-.375-.832A4.887 4.887 0 0 1 112.75 69a4.7 4.7 0 0 1 .121-1.09c.082-.332.203-.613.363-.847a1.69 1.69 0 0 1 .606-.547c.242-.13.523-.192.844-.192.277 0 .53.051.761.156.227.106.422.266.582.485.164.219.29.5.375.836.09.336.133.738.133 1.199m-1.476 11.047c0-.031 0-.063-.004-.094 0-.031-.004-.062-.004-.09l-.774.57a.527.527 0 0 0 .133.238.27.27 0 0 0 .102.067c.039.02.082.028.133.028a.325.325 0 0 0 .171-.047.396.396 0 0 0 .13-.137.647.647 0 0 0 .085-.223 1.5 1.5 0 0 0 .028-.312Zm-.829-.016v.086c0 .028 0 .055.004.082l.77-.566a.59.59 0 0 0-.055-.133.379.379 0 0 0-.074-.098.325.325 0 0 0-.23-.09.293.293 0 0 0-.172.047.373.373 0 0 0-.133.137.738.738 0 0 0-.082.223 1.5 1.5 0 0 0-.028.312Zm1.075.008c0 .14-.016.266-.043.379a.932.932 0 0 1-.125.297.703.703 0 0 1-.211.191.647.647 0 0 1-.293.067.607.607 0 0 1-.27-.059.516.516 0 0 1-.203-.168.731.731 0 0 1-.129-.289 1.644 1.644 0 0 1-.047-.418c0-.14.012-.266.043-.383a.91.91 0 0 1 .125-.293.551.551 0 0 1 .211-.191.605.605 0 0 1 .297-.067c.094 0 .184.016.262.055a.534.534 0 0 1 .207.168.884.884 0 0 1 .129.293c.031.117.047.254.047.418m.68 13.04h-2.52v-.497h1.031v-2.93l-.96.52-.2-.453 1.277-.672h.473v3.535h.898v.496m-.289 9.067c0-.082 0-.16-.007-.239a4.224 4.224 0 0 0-.02-.23l-1.95 1.449c.036.121.083.234.134.336a.929.929 0 0 0 .199.266c.074.074.16.132.261.171a.8.8 0 0 0 .333.063c.16 0 .304-.035.433-.113a.982.982 0 0 0 .332-.348 1.87 1.87 0 0 0 .215-.57c.047-.227.07-.489.07-.785Zm-2.105-.043v.218l.012.211 1.953-1.441a1.8 1.8 0 0 0-.137-.328 1.164 1.164 0 0 0-.191-.258.902.902 0 0 0-.258-.164.8.8 0 0 0-.324-.063c-.16 0-.305.04-.438.118a.982.982 0 0 0-.332.347 1.87 1.87 0 0 0-.21.57 3.66 3.66 0 0 0-.075.79Zm2.726.02c0 .355-.035.675-.105.964a2.17 2.17 0 0 1-.32.746c-.145.211-.32.371-.532.484a1.586 1.586 0 0 1-.75.172c-.25 0-.472-.047-.675-.14a1.344 1.344 0 0 1-.516-.426 2.148 2.148 0 0 1-.332-.738 4.223 4.223 0 0 1-.117-1.063c0-.351.035-.672.105-.965.074-.293.18-.539.324-.75.141-.207.317-.367.532-.48a1.54 1.54 0 0 1 .75-.172c.246 0 .468.047.672.137.203.093.375.238.52.433.144.192.253.438.331.739.074.296.113.652.113 1.058m-13.527-8.96h-2.625v-.516h1.074v-3.051l-1 .543-.207-.473 1.332-.7h.492v3.68h.934v.516m-.18 8.985a3.2 3.2 0 0 0-.011-.274 5.653 5.653 0 0 0-.02-.266l-2.246 1.668c.04.141.09.274.152.391.063.117.137.223.227.309a.974.974 0 0 0 .684.27.975.975 0 0 0 .503-.138c.149-.09.278-.218.383-.398.106-.176.188-.394.242-.652.059-.262.086-.567.086-.91Zm-2.425-.047v.25c0 .086.007.168.015.246l2.242-1.664a1.793 1.793 0 0 0-.152-.375 1.22 1.22 0 0 0-.227-.297.974.974 0 0 0-.292-.192.958.958 0 0 0-.375-.07.951.951 0 0 0-.5.137c-.153.09-.278.222-.383.398a2.257 2.257 0 0 0-.246.656 4.496 4.496 0 0 0-.082.91Zm3.14.023c0 .406-.039.777-.12 1.11a2.635 2.635 0 0 1-.372.863 1.7 1.7 0 0 1-.613.554 1.793 1.793 0 0 1-.864.196 1.81 1.81 0 0 1-.777-.16c-.23-.106-.43-.27-.598-.493a2.464 2.464 0 0 1-.378-.847 4.864 4.864 0 0 1-.137-1.223c0-.406.043-.777.125-1.113.082-.336.207-.621.37-.863.161-.239.368-.426.614-.555.246-.133.535-.195.864-.195.28 0 .539.05.773.16.234.105.43.27.598.496.164.222.293.504.379.847.093.344.136.75.136 1.223m-.918 12.535h-1.894v-.375h.773v-2.195l-.719.39-.148-.34.96-.503h.356v2.648h.672v.375" fill="#030" fill-opacity="1" fill-rule="nonzero"/><g clip-path="url(#f)"><path d="M89.086 57.977c0-.07-.004-.141-.008-.211s-.012-.141-.016-.207l-1.742 1.293c.032.109.07.21.121.304.047.09.106.168.172.239a.757.757 0 0 0 .532.207.741.741 0 0 0 .39-.106.855.855 0 0 0 .297-.305c.082-.136.145-.308.188-.511.043-.203.066-.434.066-.703Zm-1.883-.036c0 .063 0 .13.004.192 0 .066.004.129.008.191l1.742-1.289a1.399 1.399 0 0 0-.121-.293.99.99 0 0 0-.172-.226.753.753 0 0 0-.906-.098.837.837 0 0 0-.297.309 1.773 1.773 0 0 0-.191.511 3.36 3.36 0 0 0-.067.703Zm2.438.02c0 .312-.032.602-.094.86-.063.257-.16.48-.29.663a1.298 1.298 0 0 1-1.144.586c-.218 0-.418-.039-.601-.125a1.137 1.137 0 0 1-.461-.383 1.889 1.889 0 0 1-.297-.656 3.734 3.734 0 0 1-.106-.945c0-.316.036-.606.098-.863.063-.262.16-.485.285-.668.13-.188.29-.332.477-.434a1.41 1.41 0 0 1 .668-.152c.222 0 .422.043.601.125.18.082.336.21.465.383.125.171.227.394.293.66.07.265.106.582.106.949" fill="#030" fill-opacity="1" fill-rule="nonzero"/></g><path d="M89.488 71h-2.523v-.5h1.031v-2.93l-.96.52-.2-.453 1.281-.676h.473V70.5h.898v.5m-.277 9.063c0-.083-.004-.165-.008-.243a4.736 4.736 0 0 1-.02-.234l-1.968 1.465c.035.12.078.238.133.34.054.105.12.195.199.27a.857.857 0 0 0 .262.175c.101.043.21.062.336.062a.842.842 0 0 0 .44-.117.959.959 0 0 0 .337-.347c.094-.157.164-.348.215-.579a3.72 3.72 0 0 0 .074-.793Zm-2.129-.043v.218c.004.075.008.145.016.215l1.968-1.457a1.967 1.967 0 0 0-.136-.332.935.935 0 0 0-.196-.258.81.81 0 0 0-.261-.168.793.793 0 0 0-.328-.062c-.16 0-.31.039-.438.117a.941.941 0 0 0-.336.352 1.921 1.921 0 0 0-.215.578c-.05.226-.074.492-.074.797Zm2.754.02c0 .355-.035.679-.106.976-.07.293-.18.543-.324.754-.144.21-.324.37-.539.484a1.557 1.557 0 0 1-.754.176c-.254 0-.48-.047-.683-.14a1.353 1.353 0 0 1-.524-.435 2.127 2.127 0 0 1-.336-.746 4.289 4.289 0 0 1-.117-1.07c0-.355.04-.68.11-.977a2.35 2.35 0 0 1 .324-.757c.144-.207.324-.371.539-.485.219-.117.469-.175.754-.175.25 0 .476.046.683.14.203.094.38.238.524.438.144.195.254.441.332.746.078.3.117.656.117 1.07m176.187 6.61c0-.04-.003-.083-.007-.122 0-.043-.004-.082-.008-.12l-1.012.75c.02.066.043.12.07.175a.52.52 0 0 0 .102.137c.039.039.086.07.137.09a.4.4 0 0 0 .172.035.46.46 0 0 0 .226-.063.508.508 0 0 0 .172-.18 1.02 1.02 0 0 0 .11-.292 2.12 2.12 0 0 0 .038-.41Zm-1.093-.02v.113c0 .035.004.074.007.11l1.008-.747a.749.749 0 0 0-.066-.171.702.702 0 0 0-.102-.133.432.432 0 0 0-.3-.117.422.422 0 0 0-.227.062.477.477 0 0 0-.172.18 1.02 1.02 0 0 0-.11.293 1.852 1.852 0 0 0-.038.41Zm1.414.012c0 .18-.02.347-.055.496a1.23 1.23 0 0 1-.168.39.763.763 0 0 1-.277.246.765.765 0 0 1-.387.09.782.782 0 0 1-.348-.074.69.69 0 0 1-.27-.219 1.158 1.158 0 0 1-.171-.382 2.233 2.233 0 0 1-.059-.547c0-.184.016-.352.055-.504.04-.149.094-.278.168-.387a.743.743 0 0 1 .277-.25.807.807 0 0 1 .387-.086.85.85 0 0 1 .348.07.633.633 0 0 1 .265.223c.075.102.133.227.172.383.043.152.063.336.063.55m.195 12.622h-1.996v-.395h.816v-2.32l-.761.41-.153-.36 1.012-.53h.371v2.8h.711v.395m-.2 9.476c0-.066 0-.129-.007-.195a2.978 2.978 0 0 0-.016-.188l-1.597 1.188c.027.102.062.191.11.277a.77.77 0 0 0 .16.22.611.611 0 0 0 .214.14.694.694 0 0 0 .629-.043.77.77 0 0 0 .273-.285 1.65 1.65 0 0 0 .176-.465c.04-.188.059-.403.059-.649Zm-1.73-.035c0 .063 0 .121.004.18 0 .062.004.117.008.176l1.602-1.184a1.55 1.55 0 0 0-.11-.27.883.883 0 0 0-.16-.21.676.676 0 0 0-.476-.188.708.708 0 0 0-.36.098.802.802 0 0 0-.273.285 1.527 1.527 0 0 0-.172.469 2.884 2.884 0 0 0-.063.644Zm2.243.02c0 .289-.032.55-.09.789a1.754 1.754 0 0 1-.262.613 1.251 1.251 0 0 1-.438.398 1.289 1.289 0 0 1-.617.141c-.203 0-.386-.039-.55-.117a1.049 1.049 0 0 1-.426-.352 1.712 1.712 0 0 1-.27-.601 3.368 3.368 0 0 1-.097-.871c0-.29.027-.555.086-.793a1.93 1.93 0 0 1 .265-.618c.117-.167.262-.3.438-.394a1.28 1.28 0 0 1 .613-.14c.203 0 .387.038.555.113.164.078.304.195.421.355.122.156.211.36.274.606.062.246.098.535.098.87m.046 13.165h-2.68v-.528h1.098v-3.113l-1.023.555-.207-.485 1.355-.71h.504v3.753h.953v.528m-13.574-11.535h-2.058v-.407h.84v-2.39l-.786.425-.16-.37 1.043-.551h.387v2.886h.734v.407m.156 11.277h-2.359v-.465h.965v-2.738l-.899.488-.183-.426 1.195-.629h.442v3.305h.84v.465m-13.868-46.016c0-.05 0-.097-.004-.144l-.011-.14-1.176.874c.02.074.047.14.078.203a.744.744 0 0 0 .121.164.47.47 0 0 0 .156.102.478.478 0 0 0 .203.039.49.49 0 0 0 .258-.07.557.557 0 0 0 .203-.211 1.17 1.17 0 0 0 .13-.344c.027-.137.042-.293.042-.473Zm-1.273-.027v.133c.004.043.004.086.012.129l1.175-.871a.924.924 0 0 0-.082-.2.585.585 0 0 0-.117-.156.46.46 0 0 0-.156-.098.51.51 0 0 0-.656.242 1.107 1.107 0 0 0-.13.344 2.163 2.163 0 0 0-.046.477Zm1.648.012c0 .215-.02.41-.066.582a1.29 1.29 0 0 1-.192.453.897.897 0 0 1-.324.293.953.953 0 0 1-.449.101.982.982 0 0 1-.406-.086.788.788 0 0 1-.313-.257 1.303 1.303 0 0 1-.199-.446c-.05-.18-.074-.39-.074-.64 0-.211.023-.407.066-.582.043-.176.11-.329.196-.454a.919.919 0 0 1 .32-.292.98.98 0 0 1 .453-.102c.148 0 .285.031.406.086.121.055.227.14.313.258.086.117.152.265.199.445.047.18.07.395.07.64m.184 12.825h-2.246v-.445h.918v-2.614l-.856.465-.175-.402 1.14-.602h.422v3.153h.797v.445m-.25 9.277a3.805 3.805 0 0 0-.027-.418l-1.743 1.297c.032.106.07.207.118.3.05.095.109.173.18.24a.776.776 0 0 0 .23.155.795.795 0 0 0 .3.055.74.74 0 0 0 .387-.105.912.912 0 0 0 .301-.309c.082-.137.144-.305.187-.508.043-.203.067-.441.067-.707Zm-1.887-.039c0 .067 0 .133.004.195 0 .067.004.13.008.192l1.746-1.29a1.35 1.35 0 0 0-.121-.296.912.912 0 0 0-.172-.227.764.764 0 0 0-.23-.152.762.762 0 0 0-.29-.05.741.741 0 0 0-.39.105.846.846 0 0 0-.3.308 1.667 1.667 0 0 0-.188.512 3.413 3.413 0 0 0-.067.703Zm2.442.02c0 .316-.032.605-.094.863-.063.262-.16.484-.29.668a1.33 1.33 0 0 1-.476.434 1.41 1.41 0 0 1-.672.152c-.218 0-.422-.04-.601-.125a1.208 1.208 0 0 1-.465-.383 1.95 1.95 0 0 1-.297-.66 3.758 3.758 0 0 1-.102-.95c0-.312.032-.6.094-.863.067-.261.16-.484.29-.671a1.322 1.322 0 0 1 1.144-.586c.222 0 .426.043.605.125.18.082.336.21.465.386.125.172.227.395.297.66.066.266.102.582.102.95m.515 14.07h-3.804v-.754h1.554v-4.422l-1.449.79-.297-.688 1.93-1.016h.71v5.336h1.356v.754m-.8 8.035c0-.09 0-.183-.008-.273l-.024-.266-2.246 1.668c.04.14.09.273.152.39a1.036 1.036 0 0 0 .527.508c.114.047.243.07.387.07a.996.996 0 0 0 .5-.132 1.14 1.14 0 0 0 .383-.398 2.15 2.15 0 0 0 .242-.657 4.12 4.12 0 0 0 .086-.91Zm-2.426-.047v.254c0 .082.007.164.015.242l2.246-1.66a1.97 1.97 0 0 0-.156-.379 1.208 1.208 0 0 0-.223-.293.938.938 0 0 0-.668-.266.965.965 0 0 0-.503.137 1.14 1.14 0 0 0-.383.399c-.106.18-.188.398-.242.66a4.176 4.176 0 0 0-.086.906Zm3.14.024c0 .406-.039.777-.12 1.113a2.534 2.534 0 0 1-.372.86 1.7 1.7 0 0 1-.613.554 1.78 1.78 0 0 1-.863.2 1.87 1.87 0 0 1-.778-.16 1.53 1.53 0 0 1-.594-.497 2.382 2.382 0 0 1-.382-.848 4.864 4.864 0 0 1-.137-1.222c0-.407.043-.778.125-1.114a2.72 2.72 0 0 1 .371-.863c.164-.238.367-.422.617-.555.242-.132.531-.195.86-.195.28 0 .542.05.773.16.234.106.434.27.598.493.168.226.293.507.382.851a4.9 4.9 0 0 1 .133 1.223m-13.988-44.137c0-.09 0-.18-.008-.27l-.023-.261-2.203 1.636c.043.141.09.266.152.383.059.117.133.219.219.301a.944.944 0 0 0 .672.266.912.912 0 0 0 .492-.133c.148-.086.273-.215.379-.39a2.19 2.19 0 0 0 .238-.641c.055-.258.082-.555.082-.891Zm-2.379-.047v.246c0 .082.008.16.016.239l2.199-1.63a1.759 1.759 0 0 0-.152-.37 1.15 1.15 0 0 0-.22-.29.9.9 0 0 0-.288-.187.919.919 0 0 0-.367-.07.943.943 0 0 0-.489.132c-.148.09-.273.22-.379.395a2.137 2.137 0 0 0-.238.644 4.27 4.27 0 0 0-.082.891Zm3.082.024c0 .398-.039.761-.121 1.09a2.51 2.51 0 0 1-.363.843 1.7 1.7 0 0 1-.602.543 1.775 1.775 0 0 1-.847.195c-.278 0-.532-.05-.762-.156a1.575 1.575 0 0 1-.586-.484 2.407 2.407 0 0 1-.371-.832 4.725 4.725 0 0 1-.133-1.2c0-.398.039-.765.121-1.093a2.6 2.6 0 0 1 .363-.844c.16-.238.364-.418.602-.547.242-.129.523-.191.844-.191.28 0 .535.05.761.156.23.106.422.266.586.484.164.22.29.496.375.836.086.336.133.735.133 1.2m-1.476 11.046c0-.035-.004-.066-.004-.093a.758.758 0 0 0-.008-.094l-.77.574c.016.047.032.09.055.133.02.039.047.074.074.105a.429.429 0 0 0 .106.067.35.35 0 0 0 .132.023.362.362 0 0 0 .172-.043.396.396 0 0 0 .13-.136.621.621 0 0 0 .081-.227 1.23 1.23 0 0 0 .032-.309Zm-.833-.02v.087c0 .031.004.058.004.086l.77-.57a.502.502 0 0 0-.129-.23.324.324 0 0 0-.227-.09.345.345 0 0 0-.305.184.808.808 0 0 0-.081.225c-.02.09-.031.192-.031.309Zm1.079.009c0 .14-.016.27-.043.383a.836.836 0 0 1-.13.293.605.605 0 0 1-.206.19.606.606 0 0 1-.297.071.59.59 0 0 1-.266-.058.49.49 0 0 1-.203-.168.825.825 0 0 1-.133-.29 1.87 1.87 0 0 1-.043-.421c0-.137.012-.262.04-.38a.936.936 0 0 1 .128-.296.54.54 0 0 1 .211-.188.659.659 0 0 1 .559-.016c.078.04.148.095.207.173a.861.861 0 0 1 .129.289c.031.12.047.258.047.418m.675 13.043h-2.52v-.5h1.032v-2.93l-.96.523-.196-.453 1.277-.672h.473v3.532h.894v.5m-.285 9.062c0-.078-.004-.156-.008-.234-.007-.082-.011-.16-.02-.235l-1.948 1.45c.035.125.078.234.132.34.055.101.122.19.196.265a.822.822 0 0 0 .597.234.841.841 0 0 0 .434-.117.938.938 0 0 0 .332-.343 1.78 1.78 0 0 0 .211-.57c.05-.227.074-.489.074-.79Zm-2.105-.039v.219c0 .07.004.14.012.21l1.949-1.445a1.61 1.61 0 0 0-.133-.324 1.092 1.092 0 0 0-.195-.258.817.817 0 0 0-.579-.226.824.824 0 0 0-.437.117.92.92 0 0 0-.332.348 1.774 1.774 0 0 0-.211.57 3.69 3.69 0 0 0-.074.79Zm2.726.02c0 .351-.035.672-.105.965a2.2 2.2 0 0 1-.32.746 1.51 1.51 0 0 1-.536.484c-.21.113-.46.172-.75.172a1.58 1.58 0 0 1-.671-.14 1.332 1.332 0 0 1-.52-.43c-.145-.192-.25-.438-.328-.735a4.245 4.245 0 0 1-.117-1.062c0-.352.035-.676.105-.965.07-.293.18-.543.32-.75.145-.207.32-.367.536-.485.214-.113.464-.171.75-.171.246 0 .468.046.672.14.199.094.375.235.519.43.14.195.254.441.328.738.078.3.117.653.117 1.063m-13.527-8.961h-2.625v-.516h1.074v-3.05l-1.004.542-.203-.472 1.332-.7h.492v3.68h.934v.516m-.18 8.984c0-.094-.004-.183-.011-.273l-.024-.266-2.246 1.668c.043.14.094.27.156.39.063.118.137.22.227.305a.92.92 0 0 0 .3.2.97.97 0 0 0 .383.07.948.948 0 0 0 .5-.133c.153-.09.278-.223.387-.398a2.33 2.33 0 0 0 .242-.657c.055-.261.086-.562.086-.906Zm-2.43-.05c0 .085 0 .167.005.253 0 .082.003.164.011.242l2.246-1.66a2.033 2.033 0 0 0-.152-.375 1.17 1.17 0 0 0-.227-.297.974.974 0 0 0-.293-.191.972.972 0 0 0-.375-.07.972.972 0 0 0-.503.132 1.12 1.12 0 0 0-.383.403 2.216 2.216 0 0 0-.242.656 4.176 4.176 0 0 0-.086.906Zm3.145.027c0 .406-.043.773-.12 1.109a2.578 2.578 0 0 1-.372.86 1.722 1.722 0 0 1-.617.558 1.817 1.817 0 0 1-.863.195c-.282 0-.543-.054-.774-.16a1.53 1.53 0 0 1-.598-.492 2.542 2.542 0 0 1-.382-.848 5.09 5.09 0 0 1-.133-1.222c0-.407.043-.778.125-1.114.082-.336.207-.625.367-.863a1.71 1.71 0 0 1 .617-.555c.246-.132.531-.199.86-.199.285 0 .542.055.777.16.234.11.43.274.594.496.168.223.297.508.382.852.09.344.137.75.137 1.223m-.922 12.535h-1.89v-.375h.773v-2.195l-.723.39-.144-.344.957-.504h.355v2.653h.672v.375m90.785-79.168c0-.04-.003-.082-.007-.121-.004-.04-.004-.082-.008-.121l-1.012.75c.02.066.043.12.07.175a.541.541 0 0 0 .102.141.45.45 0 0 0 .137.086.4.4 0 0 0 .172.035.46.46 0 0 0 .226-.062.509.509 0 0 0 .172-.18 1.15 1.15 0 0 0 .11-.293c.023-.117.038-.254.038-.41Zm-1.093-.02v.114c0 .039.004.074.007.109l1.008-.746a.749.749 0 0 0-.066-.172.45.45 0 0 0-.402-.25c-.086 0-.16.02-.227.063a.477.477 0 0 0-.172.18 1.02 1.02 0 0 0-.11.292 1.876 1.876 0 0 0-.038.41Zm1.414.012c0 .18-.02.348-.055.496a1.23 1.23 0 0 1-.168.39.763.763 0 0 1-.277.247.765.765 0 0 1-.387.09.825.825 0 0 1-.348-.07.7.7 0 0 1-.27-.223 1.083 1.083 0 0 1-.171-.383 2.218 2.218 0 0 1-.063-.547c0-.184.02-.352.06-.504.034-.148.093-.277.163-.383a.781.781 0 0 1 .277-.254.818.818 0 0 1 .387-.086.87.87 0 0 1 .352.07.72.72 0 0 1 .265.223c.075.102.133.227.172.383.04.157.063.336.063.551m.195 12.621h-1.996v-.394h.816v-2.32l-.761.413-.157-.363 1.012-.531h.375v2.8h.711v.395" fill="#030" fill-opacity="1" fill-rule="nonzero"/><g clip-path="url(#g)"><path d="M304.59 64.18c0-.063-.004-.13-.008-.196-.004-.062-.008-.125-.016-.187l-1.597 1.187c.027.102.062.196.11.278a.773.773 0 0 0 .37.363.77.77 0 0 0 .278.05c.128 0 .25-.034.355-.097.106-.062.2-.16.273-.285a1.54 1.54 0 0 0 .172-.465 2.91 2.91 0 0 0 .063-.648Zm-1.73-.035v.18c0 .062.003.116.011.175l1.602-1.184a1.396 1.396 0 0 0-.114-.27.78.78 0 0 0-.156-.21.65.65 0 0 0-.215-.137.709.709 0 0 0-.261-.047.695.695 0 0 0-.36.094.77.77 0 0 0-.273.285 1.527 1.527 0 0 0-.172.469 2.884 2.884 0 0 0-.063.645Zm2.238.02c0 .288-.028.55-.086.788a1.83 1.83 0 0 1-.262.613 1.251 1.251 0 0 1-.438.399c-.175.094-.382.14-.617.14-.203 0-.386-.039-.55-.113a1.115 1.115 0 0 1-.426-.351 1.751 1.751 0 0 1-.274-.606 3.562 3.562 0 0 1-.093-.87c0-.29.027-.556.086-.794.058-.238.148-.445.265-.617.113-.168.262-.3.438-.395a1.28 1.28 0 0 1 .613-.14c.203 0 .387.039.55.113.169.078.31.195.426.355.118.157.211.36.274.606.062.246.094.535.094.871" fill="#030" fill-opacity="1" fill-rule="nonzero"/></g><g clip-path="url(#h)"><path d="M305.145 77.328h-2.676v-.527h1.094v-3.114l-1.02.555-.211-.484 1.36-.711h.5V76.8h.953v.527" fill="#030" fill-opacity="1" fill-rule="nonzero"/></g><path d="M291.574 65.793h-2.062v-.406h.843v-2.39l-.785.425-.16-.371 1.043-.551h.387v2.887h.734v.406m.156 11.277h-2.359v-.46h.965v-2.743l-.899.488-.183-.425 1.195-.63h.442v3.31h.84v.46m-13.868-46.015c0-.051 0-.098-.004-.145l-.011-.14-1.18.875c.023.074.047.14.082.203a.744.744 0 0 0 .121.164.47.47 0 0 0 .156.101c.059.028.125.04.2.04a.496.496 0 0 0 .261-.071.557.557 0 0 0 .203-.21c.055-.09.098-.208.13-.34a2.48 2.48 0 0 0 .042-.477Zm-1.273-.028v.133c.004.043.004.086.012.13l1.175-.872a1.175 1.175 0 0 0-.082-.2.655.655 0 0 0-.117-.155.498.498 0 0 0-.352-.133.502.502 0 0 0-.261.066.557.557 0 0 0-.203.211 1.107 1.107 0 0 0-.125.344 2.163 2.163 0 0 0-.047.476Zm1.648.012c0 .215-.02.41-.066.586-.04.172-.106.324-.192.45a.897.897 0 0 1-.324.292.958.958 0 0 1-.453.102.918.918 0 0 1-.402-.086.762.762 0 0 1-.313-.258 1.233 1.233 0 0 1-.199-.445c-.05-.18-.074-.39-.074-.64 0-.212.023-.407.066-.583.043-.176.11-.328.196-.453a.872.872 0 0 1 .32-.29.935.935 0 0 1 .453-.105c.148 0 .285.032.406.086.121.055.227.14.313.258.086.117.152.266.199.445.047.18.07.395.07.641m.184 12.824h-2.246v-.445h.918v-2.61l-.856.462-.175-.403 1.14-.601h.422v3.152h.797v.445m-.25 9.278c0-.07-.004-.141-.008-.211-.008-.07-.012-.14-.02-.207l-1.742 1.297c.032.109.07.207.118.3.05.094.109.172.175.239.07.066.145.117.235.156a.788.788 0 0 0 .297.055.741.741 0 0 0 .39-.106.868.868 0 0 0 .297-.309 1.64 1.64 0 0 0 .191-.507c.043-.203.067-.442.067-.707Zm-1.887-.036v.192c.004.066.004.129.012.191l1.746-1.289a1.35 1.35 0 0 0-.121-.297.912.912 0 0 0-.172-.226.728.728 0 0 0-.523-.203.751.751 0 0 0-.391.105.869.869 0 0 0-.297.309 1.667 1.667 0 0 0-.187.511 3.426 3.426 0 0 0-.067.707Zm2.442.016c0 .316-.032.606-.094.863a2.01 2.01 0 0 1-.29.668 1.35 1.35 0 0 1-.476.434 1.41 1.41 0 0 1-.672.152c-.222 0-.422-.039-.601-.125a1.208 1.208 0 0 1-.465-.383 1.877 1.877 0 0 1-.297-.66 3.758 3.758 0 0 1-.102-.949c0-.312.032-.601.094-.863a1.97 1.97 0 0 1 .29-.672 1.322 1.322 0 0 1 1.144-.586c.222 0 .422.043.605.125.18.086.336.21.461.387.13.172.227.394.301.66.066.27.102.586.102.95m.515 14.07h-3.808v-.754h1.558v-4.422l-1.453.789-.297-.688 1.93-1.015h.715v5.336h1.355v.753m-.8 8.04c0-.094-.005-.184-.008-.278l-.024-.266-2.246 1.668c.04.145.09.274.152.391.063.121.137.223.227.309s.187.152.3.199c.114.047.243.07.384.07.183 0 .351-.047.503-.133a1.14 1.14 0 0 0 .383-.398 2.09 2.09 0 0 0 .242-.656c.06-.262.086-.563.086-.907Zm-2.426-.051v.254c0 .082.004.164.011.242l2.246-1.66a1.783 1.783 0 0 0-.152-.38 1.057 1.057 0 0 0-.52-.488 1.018 1.018 0 0 0-.374-.07.961.961 0 0 0-.5.137c-.153.09-.278.222-.383.398-.106.18-.188.399-.246.66a4.456 4.456 0 0 0-.082.907Zm3.14.027c0 .402-.039.773-.12 1.11a2.578 2.578 0 0 1-.372.859 1.747 1.747 0 0 1-.613.558 1.84 1.84 0 0 1-.863.196 1.87 1.87 0 0 1-.778-.16 1.57 1.57 0 0 1-.598-.497c-.164-.218-.289-.503-.378-.847a4.853 4.853 0 0 1-.137-1.219c0-.406.043-.777.125-1.113a2.6 2.6 0 0 1 .371-.864 1.68 1.68 0 0 1 .613-.558 1.84 1.84 0 0 1 .864-.195c.28 0 .539.05.773.16.234.105.434.27.598.496.164.222.293.504.382.847.09.344.133.754.133 1.227m-13.988-44.14c0-.09-.004-.18-.012-.27a4.351 4.351 0 0 0-.02-.262l-2.202 1.637c.039.14.09.266.152.383.059.117.133.218.219.3a.944.944 0 0 0 .672.266.93.93 0 0 0 .492-.133c.148-.086.273-.215.379-.39a2.22 2.22 0 0 0 .238-.641c.055-.258.082-.555.082-.89Zm-2.383-.047c0 .082 0 .164.004.246 0 .082.004.16.012.238l2.203-1.629a1.759 1.759 0 0 0-.152-.371 1.023 1.023 0 0 0-.508-.477.919.919 0 0 0-.367-.07.968.968 0 0 0-.493.133c-.144.09-.273.219-.375.394a2.136 2.136 0 0 0-.242.645 4.27 4.27 0 0 0-.082.89Zm3.082.023c0 .398-.039.762-.117 1.09-.078.328-.203.61-.363.844-.16.234-.364.414-.602.546a1.774 1.774 0 0 1-.848.192 1.8 1.8 0 0 1-.761-.156 1.575 1.575 0 0 1-.586-.485 2.484 2.484 0 0 1-.375-.832 4.901 4.901 0 0 1-.13-1.199c0-.398.04-.762.122-1.094a2.6 2.6 0 0 1 .363-.844c.16-.238.36-.418.602-.546.242-.13.523-.192.844-.192.28 0 .53.051.761.156.23.106.422.266.586.485.164.219.29.496.375.836.086.336.13.738.13 1.199m-1.473 11.047c0-.031-.004-.063-.004-.094a.758.758 0 0 0-.008-.094l-.77.575c.016.046.032.09.055.132.02.04.047.075.074.106a.37.37 0 0 0 .235.094.315.315 0 0 0 .171-.047.372.372 0 0 0 .133-.137.78.78 0 0 0 .082-.223c.02-.09.032-.195.032-.312Zm-.832-.02v.086c0 .032.003.059.003.086l.77-.57a.502.502 0 0 0-.129-.23.351.351 0 0 0-.102-.067.344.344 0 0 0-.128-.02.33.33 0 0 0-.172.043.396.396 0 0 0-.13.137.947.947 0 0 0-.085.227c-.02.09-.027.191-.027.308Zm1.078.012c0 .137-.016.266-.043.379a.856.856 0 0 1-.13.297.573.573 0 0 1-.21.187.58.58 0 0 1-.293.07.59.59 0 0 1-.473-.226.861.861 0 0 1-.129-.289 1.644 1.644 0 0 1-.047-.418c0-.14.016-.266.043-.383a.89.89 0 0 1 .13-.297.558.558 0 0 1 .206-.187.606.606 0 0 1 .297-.07.68.68 0 0 1 .266.054c.078.04.148.094.203.172a.825.825 0 0 1 .133.29c.031.12.047.257.047.421m.675 13.04h-2.52v-.5h1.032v-2.927l-.96.52-.196-.453 1.277-.672h.473v3.531h.894v.5m-.285 9.066a4.7 4.7 0 0 0-.008-.238c-.007-.082-.011-.156-.02-.234l-1.948 1.45c.035.124.078.237.132.339.055.101.122.191.196.266a.822.822 0 0 0 .594.234c.16 0 .304-.04.437-.117a.938.938 0 0 0 .332-.344 1.87 1.87 0 0 0 .211-.57 3.68 3.68 0 0 0 .074-.785Zm-2.11-.042c0 .07.005.144.005.218 0 .07.004.14.012.211l1.949-1.441a1.556 1.556 0 0 0-.133-.328 1.179 1.179 0 0 0-.195-.258.89.89 0 0 0-.258-.168.842.842 0 0 0-.324-.059.82.82 0 0 0-.434.117.96.96 0 0 0-.336.348 1.88 1.88 0 0 0-.207.57c-.05.227-.078.489-.078.79Zm2.731.02c0 .35-.035.675-.105.964-.07.289-.18.539-.32.746a1.51 1.51 0 0 1-.536.484 1.55 1.55 0 0 1-.75.172c-.246 0-.472-.047-.671-.14a1.332 1.332 0 0 1-.52-.43 2.094 2.094 0 0 1-.332-.734 4.435 4.435 0 0 1-.117-1.063c0-.352.039-.672.11-.965.07-.293.179-.543.32-.75.144-.207.32-.367.535-.484.21-.113.46-.168.746-.168.246 0 .472.043.675.137.2.093.375.238.516.43.145.195.254.44.332.741.078.297.117.649.117 1.06m-13.53-8.962h-2.626v-.516h1.074v-3.05l-1 .543-.203-.473 1.328-.7h.493v3.68h.933v.516m-.176 8.984c0-.093-.007-.183-.011-.273l-.024-.266-2.246 1.668c.043.141.094.274.156.391.063.117.137.223.223.305a.97.97 0 0 0 .688.27.948.948 0 0 0 .5-.134 1.07 1.07 0 0 0 .382-.398c.106-.176.188-.395.246-.656a4.39 4.39 0 0 0 .086-.906Zm-2.43-.046v.25c.005.086.008.164.016.242l2.246-1.66a2.033 2.033 0 0 0-.152-.375 1.267 1.267 0 0 0-.227-.297.946.946 0 0 0-.668-.262c-.183 0-.351.047-.503.133a1.12 1.12 0 0 0-.383.402 2.258 2.258 0 0 0-.242.656 4.214 4.214 0 0 0-.086.91Zm3.141.023c0 .406-.039.777-.12 1.11a2.574 2.574 0 0 1-.368.859 1.755 1.755 0 0 1-.617.558 1.828 1.828 0 0 1-.863.196c-.286 0-.543-.055-.774-.16a1.503 1.503 0 0 1-.598-.493 2.467 2.467 0 0 1-.382-.847 5.09 5.09 0 0 1-.133-1.223c0-.406.043-.777.12-1.113a2.72 2.72 0 0 1 .372-.864 1.71 1.71 0 0 1 .617-.554c.246-.133.531-.2.86-.2.285 0 .542.055.773.16.234.11.434.274.598.497.168.222.293.508.382.851.09.344.133.75.133 1.223m-.918 12.535h-1.89v-.375h.773V74.13l-.723.39-.144-.343.957-.504h.355v2.652h.672v.375m78.082-55.465h-2.058v-.406h.843v-2.39l-.785.425-.16-.37 1.043-.552h.387v2.887h.73v.406m.157 11.278h-2.356v-.461h.965V29.31l-.899.488-.183-.426 1.195-.625h.442v3.305h.836v.46M316.422 8.583c0-.07-.004-.14-.012-.21a3.43 3.43 0 0 0-.015-.208l-1.747 1.297c.036.11.075.21.122.3a.92.92 0 0 0 .175.239.719.719 0 0 0 .531.21.741.741 0 0 0 .391-.105.837.837 0 0 0 .297-.308c.082-.137.145-.305.191-.508.043-.203.067-.441.067-.707Zm-1.89-.035c0 .062.003.129.003.195 0 .063.004.13.012.188l1.742-1.29a1.567 1.567 0 0 0-.117-.296.925.925 0 0 0-.176-.227.753.753 0 0 0-.52-.203.741.741 0 0 0-.39.106.837.837 0 0 0-.297.308c-.082.14-.144.309-.191.512a3.426 3.426 0 0 0-.067.707Zm2.445.015c0 .317-.032.606-.098.864a1.93 1.93 0 0 1-.285.668c-.13.187-.29.332-.477.433a1.41 1.41 0 0 1-.672.153 1.44 1.44 0 0 1-.601-.121 1.255 1.255 0 0 1-.465-.387 1.889 1.889 0 0 1-.297-.656 3.812 3.812 0 0 1-.102-.954c0-.312.032-.601.094-.863.063-.261.16-.484.285-.668a1.34 1.34 0 0 1 .48-.433c.192-.102.415-.153.669-.153.222 0 .422.04.601.121.184.086.336.215.465.387.13.176.227.395.297.66.07.27.106.586.106.95m.511 14.07h-3.804v-.75h1.558v-4.426l-1.453.79-.297-.688 1.93-1.012h.715v5.336h1.351v.75m-.797 8.039a3.19 3.19 0 0 0-.011-.277 5.485 5.485 0 0 0-.02-.262l-2.246 1.664c.04.144.09.273.152.39.063.122.137.223.227.31a.92.92 0 0 0 .3.198.97.97 0 0 0 .384.07.948.948 0 0 0 .5-.132c.152-.09.28-.223.386-.399a2.07 2.07 0 0 0 .242-.656c.06-.262.086-.562.086-.906Zm-2.43-.05c0 .085 0 .167.005.253 0 .082.004.164.011.242l2.246-1.66a1.775 1.775 0 0 0-.152-.379 1.057 1.057 0 0 0-.52-.488 1.05 1.05 0 0 0-.374-.067.948.948 0 0 0-.5.133 1.09 1.09 0 0 0-.387.403 2.216 2.216 0 0 0-.242.656 4.176 4.176 0 0 0-.086.906Zm3.145.026a4.9 4.9 0 0 1-.12 1.11 2.578 2.578 0 0 1-.372.86 1.78 1.78 0 0 1-.613.558 1.84 1.84 0 0 1-.863.195 1.81 1.81 0 0 1-.778-.16 1.53 1.53 0 0 1-.598-.492 2.414 2.414 0 0 1-.378-.852 4.853 4.853 0 0 1-.137-1.219c0-.406.043-.777.125-1.113.082-.336.203-.625.367-.863.164-.242.371-.426.617-.559.246-.129.535-.195.86-.195.285 0 .543.055.777.16.234.106.434.27.598.496.164.223.293.508.379.852.09.34.136.75.136 1.222m-13.84-20.085h-2.52v-.497h1.032v-2.93l-.96.52-.2-.453 1.281-.672h.473v3.535h.894v.496m-.285 9.067a4.7 4.7 0 0 0-.008-.238c-.007-.078-.015-.157-.02-.23l-1.952 1.444c.039.125.082.239.137.34a.975.975 0 0 0 .195.266.781.781 0 0 0 .262.172.812.812 0 0 0 .332.062.88.88 0 0 0 .437-.113c.129-.078.238-.195.332-.348.09-.152.16-.343.211-.57.05-.227.074-.488.074-.785Zm-2.11-.043v.219c.005.07.009.14.017.21l1.949-1.44a1.797 1.797 0 0 0-.133-.329 1.179 1.179 0 0 0-.195-.258.852.852 0 0 0-.582-.226.82.82 0 0 0-.434.117.96.96 0 0 0-.336.348 1.94 1.94 0 0 0-.21.57 3.927 3.927 0 0 0-.075.789Zm2.731.02c0 .355-.039.675-.105.964-.074.29-.18.54-.32.746a1.579 1.579 0 0 1-.536.485 1.586 1.586 0 0 1-.75.172 1.56 1.56 0 0 1-.671-.141 1.332 1.332 0 0 1-.52-.43 2.094 2.094 0 0 1-.332-.734 4.223 4.223 0 0 1-.117-1.063c0-.351.035-.671.11-.964.07-.293.179-.54.32-.75.14-.207.32-.368.535-.485.21-.113.46-.168.746-.168.246 0 .472.047.675.137.2.094.372.238.516.434.145.191.254.437.332.738.074.297.117.652.117 1.058m-13.53-8.96h-2.626v-.516h1.074V7.08l-1 .542-.203-.473 1.328-.699h.493v3.68h.933v.516m-.18 8.984c0-.09-.003-.184-.007-.274l-.024-.265-2.246 1.668c.04.14.094.273.152.39.067.118.141.223.227.309.09.082.187.148.3.195a.93.93 0 0 0 .384.075.965.965 0 0 0 .503-.137 1.1 1.1 0 0 0 .383-.399c.106-.175.188-.394.242-.652.06-.262.086-.566.086-.91Zm-2.425-.047v.25c.004.086.007.168.015.246l2.246-1.664a2.038 2.038 0 0 0-.156-.375 1.312 1.312 0 0 0-.223-.297.946.946 0 0 0-.671-.262.961.961 0 0 0-.5.137 1.14 1.14 0 0 0-.383.399 2.257 2.257 0 0 0-.246.656 4.496 4.496 0 0 0-.082.91Zm3.14.023c0 .407-.039.778-.12 1.11a2.555 2.555 0 0 1-.372.863 1.735 1.735 0 0 1-.613.555 1.783 1.783 0 0 1-.863.195 1.81 1.81 0 0 1-.778-.16 1.52 1.52 0 0 1-.594-.492 2.467 2.467 0 0 1-.382-.848 4.864 4.864 0 0 1-.137-1.223c0-.406.043-.777.125-1.113.082-.336.207-.62.371-.863a1.7 1.7 0 0 1 .613-.555c.246-.133.535-.199.864-.199.28 0 .543.055.773.164.234.106.434.27.598.492.164.223.293.508.382.852.09.344.133.75.133 1.222m-.918 12.536h-1.894v-.375h.777V29.57l-.723.39-.148-.339.96-.508h.356v2.653h.672v.375m-148.625 94.898c0-.074 0-.144-.008-.215a3.69 3.69 0 0 0-.015-.207l-1.746 1.297c.031.11.074.211.12.305a.9.9 0 0 0 .177.238.676.676 0 0 0 .234.152c.086.04.184.059.297.059.14 0 .273-.035.39-.106a.903.903 0 0 0 .297-.308c.082-.137.145-.309.188-.512a3.38 3.38 0 0 0 .066-.703Zm-1.886-.039a4.227 4.227 0 0 0 .015.387l1.742-1.293a1.399 1.399 0 0 0-.12-.293.772.772 0 0 0-.173-.227.697.697 0 0 0-.23-.152.78.78 0 0 0-.68.05.85.85 0 0 0-.297.313 1.666 1.666 0 0 0-.191.512 3.413 3.413 0 0 0-.066.703Zm2.445.02c0 .316-.035.601-.098.863a1.962 1.962 0 0 1-.285.668 1.34 1.34 0 0 1-.48.433c-.188.102-.41.153-.668.153a1.46 1.46 0 0 1-.606-.125 1.197 1.197 0 0 1-.46-.383 1.91 1.91 0 0 1-.298-.66 3.744 3.744 0 0 1-.105-.95c0-.316.035-.605.098-.863.062-.261.16-.484.285-.672.129-.187.285-.328.48-.433a1.39 1.39 0 0 1 .668-.153c.223 0 .422.043.602.125.183.082.336.211.465.387.128.172.226.39.296.66.07.266.106.582.106.95m-13.41 1.996h-2.52v-.496h1.031v-2.93l-.96.523-.2-.457 1.282-.672h.468v3.536h.899v.496m-13.196.086h-2.625v-.52h1.075v-3.047l-1 .543-.207-.473 1.332-.703h.492v3.68h.933v.52m75.137 57.863c0-.07-.004-.14-.008-.211-.007-.074-.011-.14-.02-.211l-1.741 1.297c.03.11.07.21.117.305.05.093.11.171.176.238.07.066.144.117.234.156a.788.788 0 0 0 .297.055.741.741 0 0 0 .39-.106.912.912 0 0 0 .301-.308c.078-.137.145-.305.188-.508.043-.203.066-.442.066-.707Zm-1.887-.04v.196c.004.066.004.129.012.191l1.746-1.292a1.399 1.399 0 0 0-.12-.293.815.815 0 0 0-.402-.379.782.782 0 0 0-.294-.051.787.787 0 0 0-.39.101.916.916 0 0 0-.298.313 1.667 1.667 0 0 0-.187.512 3.413 3.413 0 0 0-.067.703Zm2.442.02c0 .317-.031.606-.094.864a2.01 2.01 0 0 1-.289.668 1.33 1.33 0 0 1-.477.433 1.41 1.41 0 0 1-.671.153 1.43 1.43 0 0 1-.602-.125 1.208 1.208 0 0 1-.465-.383 1.877 1.877 0 0 1-.297-.66 3.758 3.758 0 0 1-.101-.95 3.7 3.7 0 0 1 .093-.863c.067-.262.16-.484.29-.672a1.322 1.322 0 0 1 1.144-.586c.223 0 .422.043.606.125.18.082.335.211.464.387.125.172.227.394.297.66.067.266.102.582.102.95m-13.41 2h-2.52v-.5h1.031v-2.93l-.96.523-.196-.453 1.277-.676h.473v3.535h.895v.5m-13.192.082h-2.629v-.52h1.078v-3.046l-1.003.543-.204-.473 1.329-.699h.496v3.676h.933v.52m39.149 10.609c0-.075 0-.145-.008-.215-.004-.07-.012-.14-.016-.207l-1.746 1.297c.031.11.074.21.121.3a.858.858 0 0 0 .176.243.676.676 0 0 0 .234.152c.086.04.184.055.297.055.14 0 .274-.035.39-.106a.856.856 0 0 0 .298-.304c.082-.137.144-.309.187-.512a3.41 3.41 0 0 0 .067-.703Zm-1.887-.04c0 .067 0 .13.004.196 0 .062.004.129.012.187l1.742-1.289a1.244 1.244 0 0 0-.121-.293.846.846 0 0 0-.172-.23.753.753 0 0 0-.52-.203.741.741 0 0 0-.39.105.868.868 0 0 0-.297.309c-.082.14-.149.309-.192.512a3.426 3.426 0 0 0-.066.707Zm2.445.02c0 .313-.035.602-.097.86-.063.261-.16.484-.286.671a1.33 1.33 0 0 1-.48.43 1.38 1.38 0 0 1-.668.156 1.46 1.46 0 0 1-.605-.125 1.174 1.174 0 0 1-.461-.386 1.93 1.93 0 0 1-.301-.657 3.97 3.97 0 0 1-.102-.949c0-.316.032-.605.098-.867.062-.262.16-.48.285-.668a1.31 1.31 0 0 1 .48-.434c.188-.101.415-.152.669-.152.222 0 .421.04.601.125.184.082.336.211.465.383.129.176.226.394.297.664.07.266.105.582.105.95m-13.41 1.995h-2.52v-.496h1.032v-2.93l-.961.52-.2-.453 1.278-.672h.473v3.535h.898v.496m-13.195.086h-2.625v-.52h1.074v-3.05l-1 .543-.207-.473 1.332-.699h.492v3.68h.934v.52M77.895 40.32h-2.247v-.445h.918v-2.61l-.855.462-.176-.403 1.14-.601h.423v3.152h.797v.445m-.25 9.278c0-.07-.004-.141-.008-.211-.008-.07-.012-.14-.02-.207l-1.742 1.297c.031.109.07.207.117.3.051.094.11.172.176.239.07.066.144.117.234.156a.788.788 0 0 0 .297.055.741.741 0 0 0 .39-.106.868.868 0 0 0 .298-.309 1.64 1.64 0 0 0 .191-.507c.043-.203.067-.442.067-.707Zm-1.887-.035v.19c.004.067.004.13.012.192l1.746-1.289a1.35 1.35 0 0 0-.121-.297.912.912 0 0 0-.172-.226.728.728 0 0 0-.524-.203.751.751 0 0 0-.39.105.869.869 0 0 0-.297.309 1.667 1.667 0 0 0-.188.511 3.426 3.426 0 0 0-.066.708Zm2.441.015c0 .317-.031.606-.094.863a2.01 2.01 0 0 1-.289.668 1.33 1.33 0 0 1-.476.434 1.41 1.41 0 0 1-.672.152c-.223 0-.422-.039-.602-.125a1.208 1.208 0 0 1-.464-.383 1.877 1.877 0 0 1-.297-.66 3.758 3.758 0 0 1-.102-.949 3.7 3.7 0 0 1 .094-.863 2.05 2.05 0 0 1 .289-.672 1.322 1.322 0 0 1 1.144-.586c.223 0 .422.043.606.125.18.086.336.211.465.387.125.172.226.394.297.66.066.27.101.586.101.95m.516 14.07h-3.809v-.754h1.559v-4.422l-1.453.789-.297-.688 1.93-1.015h.714v5.336h1.356v.753m-.8 8.04c0-.094-.005-.184-.009-.278l-.023-.265-2.246 1.668c.039.144.09.273.152.39.063.121.137.223.227.309s.187.152.3.199c.114.047.243.07.383.07.184 0 .352-.047.504-.133a1.14 1.14 0 0 0 .383-.398 2.14 2.14 0 0 0 .242-.656c.059-.262.086-.563.086-.906Zm-2.427-.051v.254c0 .082.004.164.012.242l2.25-1.66a1.97 1.97 0 0 0-.156-.38 1.208 1.208 0 0 0-.223-.292 1.004 1.004 0 0 0-.297-.196 1.018 1.018 0 0 0-.375-.07.961.961 0 0 0-.5.137 1.12 1.12 0 0 0-.383.398 2.32 2.32 0 0 0-.246.66 4.456 4.456 0 0 0-.082.907Zm3.14.027c0 .402-.038.773-.12 1.11a2.578 2.578 0 0 1-.371.859 1.747 1.747 0 0 1-.614.558 1.84 1.84 0 0 1-.863.196 1.87 1.87 0 0 1-.777-.16 1.57 1.57 0 0 1-.598-.497c-.164-.218-.289-.503-.379-.847a4.853 4.853 0 0 1-.136-1.219c0-.406.043-.777.125-1.113a2.6 2.6 0 0 1 .37-.864 1.68 1.68 0 0 1 .614-.558 1.84 1.84 0 0 1 .863-.195c.281 0 .54.05.774.16.234.105.433.27.597.496.164.222.293.504.383.847.09.344.133.754.133 1.227m-.567 13.07H75.5v-.507h1.047V81.25l-.977.531-.199-.46 1.297-.684h.484v3.59h.91v.507M141.29 139.7h-2.246v-.445h.918v-2.61l-.856.461-.175-.402 1.14-.601h.422v3.152h.797v.445m-.25 9.278c0-.07-.004-.141-.008-.211-.008-.07-.011-.141-.02-.207l-1.741 1.296c.03.11.07.208.117.301.05.094.11.172.175.239a.726.726 0 0 0 .535.21.74.74 0 0 0 .387-.105.878.878 0 0 0 .301-.309c.078-.136.145-.304.188-.507.043-.204.066-.442.066-.707Zm-1.887-.036v.196c.004.062.004.125.012.187l1.746-1.289a1.35 1.35 0 0 0-.12-.297.802.802 0 0 0-.402-.375.706.706 0 0 0-.29-.054.765.765 0 0 0-.395.105.869.869 0 0 0-.297.309c-.082.14-.144.308-.187.511a3.426 3.426 0 0 0-.067.707Zm2.442.016c0 .316-.031.606-.094.863a2.01 2.01 0 0 1-.29.668 1.33 1.33 0 0 1-.476.434 1.41 1.41 0 0 1-.672.152 1.37 1.37 0 0 1-.601-.125 1.208 1.208 0 0 1-.465-.383 1.963 1.963 0 0 1-.297-.656 3.812 3.812 0 0 1-.101-.953c0-.312.03-.602.093-.863.067-.262.16-.485.29-.672.124-.184.285-.328.476-.43a1.41 1.41 0 0 1 .668-.152c.223 0 .422.039.605.12.18.087.336.212.465.388.125.175.227.394.297.66.067.27.102.586.102.949m.515 14.07h-3.808v-.754h1.558v-4.421l-1.453.789-.293-.688 1.93-1.016h.71v5.336h1.356v.754m97.692-30.168h-2.246v-.445h.918v-2.61l-.856.466-.176-.407 1.141-.601h.422v3.152h.797v.445m-.25 9.278c0-.07-.004-.14-.008-.211a3.388 3.388 0 0 0-.02-.207l-1.742 1.297c.031.109.07.21.117.3.051.094.11.172.18.239a.776.776 0 0 0 .23.156.732.732 0 0 0 .301.055.74.74 0 0 0 .387-.106.878.878 0 0 0 .3-.308c.083-.137.145-.305.188-.508.043-.203.067-.442.067-.707Zm-1.887-.035c0 .062 0 .128.004.195 0 .062.004.129.008.187l1.746-1.289a1.35 1.35 0 0 0-.121-.297.912.912 0 0 0-.172-.226.753.753 0 0 0-.52-.203.741.741 0 0 0-.39.105.846.846 0 0 0-.301.309c-.082.14-.145.308-.188.512a3.426 3.426 0 0 0-.066.707Zm2.441.015c0 .317-.03.606-.093.863-.063.262-.16.485-.29.668a1.33 1.33 0 0 1-.476.434 1.41 1.41 0 0 1-.672.152 1.44 1.44 0 0 1-.601-.12 1.255 1.255 0 0 1-.465-.387 1.963 1.963 0 0 1-.297-.657 3.812 3.812 0 0 1-.102-.953c0-.312.032-.601.094-.863a2.01 2.01 0 0 1 .29-.668 1.298 1.298 0 0 1 1.144-.586c.222 0 .425.04.605.121.18.086.336.215.465.387.125.176.227.394.297.66.066.27.101.586.101.95m.516 14.07h-3.805v-.75h1.555v-4.426l-1.45.789-.296-.688 1.93-1.011h.71v5.335h1.356v.75m-36.707-44.91h-2.246v-.441h.918v-2.613l-.856.465-.175-.407 1.14-.597h.422v3.152h.797v.441m-.25 9.282c0-.075-.004-.145-.008-.215-.008-.07-.011-.137-.02-.207l-1.741 1.297c.03.109.07.21.117.304.05.09.11.172.175.239.07.066.145.117.235.152a.723.723 0 0 0 .3.058.74.74 0 0 0 .387-.105.912.912 0 0 0 .301-.309c.078-.136.145-.308.188-.511.043-.203.066-.438.066-.703Zm-1.887-.04v.196c.004.066.004.129.012.191l1.746-1.293a1.399 1.399 0 0 0-.12-.293.846.846 0 0 0-.403-.379.794.794 0 0 0-.684.05.882.882 0 0 0-.297.314 1.667 1.667 0 0 0-.187.511 3.413 3.413 0 0 0-.067.704Zm2.442.02a3.7 3.7 0 0 1-.094.863c-.066.258-.16.485-.29.668a1.33 1.33 0 0 1-.476.434 1.41 1.41 0 0 1-.672.152 1.43 1.43 0 0 1-.601-.125 1.208 1.208 0 0 1-.465-.383 1.986 1.986 0 0 1-.297-.66 3.758 3.758 0 0 1-.101-.949c0-.316.03-.605.093-.863.067-.262.16-.485.29-.672.124-.188.285-.328.476-.434a1.41 1.41 0 0 1 .668-.152c.223 0 .422.043.605.125.18.082.336.21.465.387.125.172.227.39.297.66.067.265.102.582.102.95m.515 14.065h-3.808v-.75h1.558v-4.421l-1.453.789-.297-.688 1.93-1.015h.715v5.335h1.355v.75m-37.14-30.164h-2.246v-.445h.918v-2.613l-.856.465-.176-.407 1.141-.597h.422v3.152h.797v.445m-.25 9.278c0-.074-.004-.145-.008-.215-.008-.07-.012-.137-.02-.207l-1.742 1.297c.031.11.07.21.117.304.051.09.11.172.176.239.07.066.145.117.235.152a.72.72 0 0 0 .296.059.741.741 0 0 0 .391-.106.868.868 0 0 0 .297-.308 1.68 1.68 0 0 0 .191-.508c.043-.203.067-.442.067-.707Zm-1.887-.04v.196c.004.066.004.129.012.191l1.746-1.293a1.645 1.645 0 0 0-.121-.293.935.935 0 0 0-.172-.226.788.788 0 0 0-.23-.152.783.783 0 0 0-.981.363 1.667 1.667 0 0 0-.188.512 3.162 3.162 0 0 0-.066.703Zm2.441.02a3.7 3.7 0 0 1-.093.864c-.067.257-.16.484-.29.667a1.35 1.35 0 0 1-.476.434 1.41 1.41 0 0 1-.672.152c-.222 0-.422-.043-.601-.125a1.208 1.208 0 0 1-.465-.382 1.91 1.91 0 0 1-.297-.66 3.758 3.758 0 0 1-.102-.95c0-.316.032-.605.094-.863a1.98 1.98 0 0 1 .29-.672c.124-.187.284-.328.476-.434a1.41 1.41 0 0 1 .668-.152c.222 0 .422.043.605.125.18.082.336.211.461.387.129.172.227.39.297.66.07.266.105.582.105.95m.512 14.066h-3.805v-.75h1.56v-4.422l-1.454.789-.297-.688 1.93-1.015h.715v5.336h1.351v.75M278.68 88.93h-2.25v-.446h.922v-2.609l-.856.46-.176-.401 1.14-.602h.419v3.152h.8v.446m-.25 9.277c0-.07-.003-.14-.011-.21a3.318 3.318 0 0 0-.016-.208l-1.746 1.297c.031.11.074.207.121.3a.839.839 0 0 0 .41.395.774.774 0 0 0 .297.055.745.745 0 0 0 .391-.106.903.903 0 0 0 .297-.308c.082-.137.144-.305.191-.508.043-.203.067-.441.067-.707Zm-1.89-.035c0 .062.004.129.004.191 0 .067.004.13.012.192l1.742-1.29a1.567 1.567 0 0 0-.117-.296.925.925 0 0 0-.176-.227.764.764 0 0 0-.23-.152.762.762 0 0 0-.29-.05.741.741 0 0 0-.39.105.837.837 0 0 0-.297.308 1.773 1.773 0 0 0-.192.512 3.426 3.426 0 0 0-.066.707Zm2.445.016c0 .316-.03.605-.097.863a1.93 1.93 0 0 1-.285.668 1.34 1.34 0 0 1-.48.433 1.383 1.383 0 0 1-.669.153 1.4 1.4 0 0 1-.605-.125 1.197 1.197 0 0 1-.461-.383 1.877 1.877 0 0 1-.297-.66 3.744 3.744 0 0 1-.106-.95c0-.312.036-.601.098-.863.063-.261.16-.484.285-.672.13-.183.29-.328.48-.43.188-.1.415-.156.669-.156.222 0 .421.043.601.125.184.086.336.211.465.387.129.172.227.395.297.66.07.27.105.586.105.95m.512 14.07h-3.805v-.754h1.559v-4.422l-1.453.79-.297-.688 1.93-1.016h.715v5.336h1.351v.754m37.434-67.453h-2.25v-.446h.922V41.75l-.86.46-.172-.401 1.137-.602h.422v3.152h.8v.446m-.253 9.277c0-.07 0-.14-.008-.21-.004-.071-.012-.142-.016-.208l-1.746 1.297c.031.11.07.207.117.3.051.094.11.173.18.239a.776.776 0 0 0 .23.156c.09.04.188.055.301.055a.745.745 0 0 0 .391-.106.869.869 0 0 0 .297-.308c.082-.137.144-.305.187-.508.043-.203.067-.441.067-.707Zm-1.887-.035c0 .062 0 .129.004.191 0 .067.004.13.012.192l1.742-1.29a1.35 1.35 0 0 0-.121-.296.912.912 0 0 0-.172-.227.687.687 0 0 0-.23-.148.694.694 0 0 0-.29-.055.741.741 0 0 0-.39.106.837.837 0 0 0-.297.308c-.082.14-.149.309-.192.512a3.426 3.426 0 0 0-.066.707Zm2.441.016c0 .316-.03.605-.093.863-.063.261-.16.484-.285.668a1.34 1.34 0 0 1-.48.433 1.394 1.394 0 0 1-.669.153 1.4 1.4 0 0 1-.605-.125 1.237 1.237 0 0 1-.465-.383 1.963 1.963 0 0 1-.297-.656 4.004 4.004 0 0 1-.102-.953c0-.313.032-.602.098-.864.063-.261.16-.484.285-.672.13-.183.285-.328.48-.43.188-.1.415-.152.669-.152.222 0 .421.04.601.121.18.086.336.211.465.387.125.176.227.395.297.66.07.27.101.586.101.95m26.243-41.243h-2.25v-.445h.922V9.762l-.856.465-.176-.403 1.14-.601h.419v3.152h.8v.445m-.253 9.278c0-.07 0-.141-.008-.211a3.565 3.565 0 0 0-.016-.211l-1.746 1.297c.031.109.074.21.121.304a.839.839 0 0 0 .41.395.774.774 0 0 0 .297.055.755.755 0 0 0 .391-.106.903.903 0 0 0 .297-.308c.082-.137.144-.305.187-.508.043-.203.067-.442.067-.707Zm-1.887-.04c0 .067 0 .133.004.196 0 .066.004.129.012.191l1.742-1.289a1.35 1.35 0 0 0-.121-.297.827.827 0 0 0-.403-.379.762.762 0 0 0-.289-.05.776.776 0 0 0-.39.101.881.881 0 0 0-.297.313 1.666 1.666 0 0 0-.192.511 3.413 3.413 0 0 0-.066.704Zm2.445.02c0 .317-.035.606-.097.863a1.93 1.93 0 0 1-.285.668 1.34 1.34 0 0 1-.48.434 1.383 1.383 0 0 1-.669.152 1.46 1.46 0 0 1-.605-.125 1.197 1.197 0 0 1-.461-.383 1.877 1.877 0 0 1-.297-.66 3.744 3.744 0 0 1-.106-.949c0-.316.036-.601.098-.863.063-.262.16-.485.285-.672a1.35 1.35 0 0 1 1.148-.586c.223 0 .422.043.602.125.184.082.336.211.465.387a1.9 1.9 0 0 1 .297.66c.07.266.105.582.105.95M142.836 61.905h-2.246v-.445h.918v-2.61l-.856.465-.175-.406 1.14-.597h.422v3.148h.797v.445m-.25 9.282c0-.075-.004-.145-.008-.215-.008-.07-.012-.141-.02-.207l-1.742 1.296c.032.11.07.211.118.301.05.094.109.176.175.242.07.067.145.118.235.153a.724.724 0 0 0 .3.055.74.74 0 0 0 .387-.106.864.864 0 0 0 .301-.305c.078-.136.145-.308.188-.511.042-.204.066-.438.066-.704Zm-1.887-.04v.196c.004.062.004.129.012.187l1.746-1.289a1.244 1.244 0 0 0-.293-.523.753.753 0 0 0-.52-.203.765.765 0 0 0-.394.105.903.903 0 0 0-.297.309c-.082.14-.144.308-.187.511a3.426 3.426 0 0 0-.067.707Zm2.442.02c0 .312-.032.602-.094.86-.063.261-.16.484-.29.671a1.318 1.318 0 0 1-.476.43 1.41 1.41 0 0 1-.672.156c-.222 0-.422-.043-.601-.125a1.185 1.185 0 0 1-.465-.387 1.928 1.928 0 0 1-.297-.656 3.78 3.78 0 0 1-.101-.949c0-.316.03-.606.093-.867.067-.262.16-.48.29-.668a1.298 1.298 0 0 1 1.144-.586c.223 0 .426.039.605.125.18.082.336.21.465.383.125.175.227.394.297.664.066.265.102.582.102.949m-26.528-32.672h-2.25v-.445h.922v-2.61l-.855.461-.176-.402 1.14-.602h.418v3.153h.801v.445m-.25 9.277c0-.07-.004-.14-.011-.21-.004-.07-.008-.141-.016-.208l-1.746 1.297c.031.11.074.207.12.301a.839.839 0 0 0 .411.395.774.774 0 0 0 .297.054c.14 0 .273-.035.39-.105a.903.903 0 0 0 .297-.309c.082-.136.145-.304.192-.508.043-.203.066-.44.066-.707Zm-1.89-.035c0 .063.004.13.004.192 0 .066.003.129.011.191l1.742-1.289a1.567 1.567 0 0 0-.117-.297.925.925 0 0 0-.175-.226.764.764 0 0 0-.231-.153.762.762 0 0 0-.289-.05.741.741 0 0 0-.39.105.837.837 0 0 0-.298.309 1.773 1.773 0 0 0-.19.511 3.426 3.426 0 0 0-.067.707Zm2.445.016c0 .316-.031.605-.098.863a1.93 1.93 0 0 1-.285.668 1.34 1.34 0 0 1-.48.434 1.39 1.39 0 0 1-.668.152 1.4 1.4 0 0 1-.606-.125 1.197 1.197 0 0 1-.46-.383 1.877 1.877 0 0 1-.298-.66 3.744 3.744 0 0 1-.105-.95c0-.312.035-.6.098-.862.062-.262.16-.485.285-.672a1.37 1.37 0 0 1 .48-.43 1.39 1.39 0 0 1 .668-.156c.223 0 .422.043.602.125.183.086.336.21.465.387.129.171.226.394.296.66.07.27.106.586.106.949" fill="#030" fill-opacity="1" fill-rule="nonzero"/></svg>