<svg xmlns="http://www.w3.org/2000/svg" xmlns:xlink="http://www.w3.org/1999/xlink" width="128" zoomAndPan="magnify" viewBox="0 0 96 95.999999" height="128" preserveAspectRatio="xMidYMid meet" version="1.0"><defs><clipPath id="e8268cfef2"><path d="M 0 6.839844 L 96 6.839844 L 96 89.339844 L 0 89.339844 Z M 0 6.839844 " clip-rule="nonzero"/></clipPath></defs><g clip-path="url(#e8268cfef2)"><path fill="#00ffe0" d="M 85.714844 89.140625 L 10.285156 89.140625 C 4.628906 89.140625 0 84.511719 0 78.851562 L 0 17.140625 C 0 11.480469 4.628906 6.851562 10.285156 6.851562 L 85.714844 6.851562 C 91.371094 6.851562 96 11.480469 96 17.140625 L 96 78.851562 C 96 84.511719 91.371094 89.140625 85.714844 89.140625 Z M 10.285156 13.710938 C 8.398438 13.710938 6.855469 15.253906 6.855469 17.140625 L 6.855469 78.851562 C 6.855469 80.738281 8.398438 82.28125 10.285156 82.28125 L 85.714844 82.28125 C 87.601562 82.28125 89.144531 80.738281 89.144531 78.851562 L 89.144531 17.140625 C 89.144531 15.253906 87.601562 13.710938 85.714844 13.710938 Z M 10.285156 13.710938 " fill-opacity="1" fill-rule="nonzero"/></g><path fill="#00ffe0" d="M 89.144531 34.28125 L 6.855469 34.28125 C 4.972656 34.28125 3.429688 32.738281 3.429688 30.851562 C 3.429688 28.96875 4.972656 27.425781 6.855469 27.425781 L 89.144531 27.425781 C 91.027344 27.425781 92.570312 28.96875 92.570312 30.851562 C 92.570312 32.738281 91.027344 34.28125 89.144531 34.28125 Z M 89.144531 34.28125 " fill-opacity="1" fill-rule="nonzero"/><path fill="#00ffe0" d="M 13.714844 23.996094 C 12.789062 23.996094 11.929688 23.652344 11.28125 23.003906 C 10.972656 22.660156 10.730469 22.28125 10.558594 21.871094 C 10.386719 21.460938 10.285156 21.011719 10.285156 20.566406 C 10.285156 19.640625 10.664062 18.785156 11.28125 18.132812 C 12.070312 17.34375 13.269531 16.96875 14.367188 17.207031 C 14.605469 17.242188 14.8125 17.308594 15.015625 17.414062 C 15.222656 17.480469 15.429688 17.585938 15.632812 17.722656 C 15.804688 17.859375 15.976562 17.996094 16.148438 18.132812 C 16.765625 18.785156 17.144531 19.675781 17.144531 20.566406 C 17.144531 21.011719 17.039062 21.460938 16.867188 21.871094 C 16.695312 22.28125 16.457031 22.660156 16.148438 23.003906 C 15.496094 23.652344 14.640625 23.996094 13.714844 23.996094 Z M 13.714844 23.996094 " fill-opacity="1" fill-rule="nonzero"/><path fill="#00ffe0" d="M 24 23.996094 C 23.074219 23.996094 22.21875 23.652344 21.566406 23.003906 C 21.257812 22.660156 21.015625 22.28125 20.847656 21.871094 C 20.675781 21.460938 20.570312 21.011719 20.570312 20.566406 C 20.570312 19.640625 20.949219 18.785156 21.566406 18.132812 C 22.355469 17.34375 23.554688 16.96875 24.652344 17.207031 C 24.890625 17.242188 25.097656 17.308594 25.304688 17.414062 C 25.507812 17.480469 25.714844 17.585938 25.921875 17.722656 C 26.089844 17.824219 26.261719 17.996094 26.433594 18.132812 C 27.050781 18.785156 27.429688 19.675781 27.429688 20.566406 C 27.429688 21.011719 27.324219 21.460938 27.152344 21.871094 C 26.984375 22.28125 26.742188 22.660156 26.433594 23.003906 C 25.78125 23.652344 24.925781 23.996094 24 23.996094 Z M 24 23.996094 " fill-opacity="1" fill-rule="nonzero"/><path fill="#00ffe0" d="M 34.285156 23.996094 C 33.359375 23.996094 32.503906 23.652344 31.851562 23.003906 C 31.542969 22.660156 31.304688 22.28125 31.132812 21.871094 C 30.960938 21.460938 30.855469 21.011719 30.855469 20.566406 C 30.855469 19.675781 31.234375 18.785156 31.851562 18.132812 C 33.121094 16.863281 35.453125 16.863281 36.71875 18.132812 C 37.335938 18.785156 37.714844 19.675781 37.714844 20.566406 C 37.714844 21.460938 37.371094 22.351562 36.71875 23.003906 C 36.070312 23.652344 35.210938 23.996094 34.285156 23.996094 Z M 34.285156 23.996094 " fill-opacity="1" fill-rule="nonzero"/></svg>