<svg xmlns="http://www.w3.org/2000/svg" xmlns:xlink="http://www.w3.org/1999/xlink" width="128" zoomAndPan="magnify" viewBox="0 0 96 95.999999" height="128" preserveAspectRatio="xMidYMid meet" version="1.0"><defs><g/><clipPath id="9a837e62c5"><path d="M 48 0 C 21.492188 0 0 21.492188 0 48 C 0 74.507812 21.492188 96 48 96 C 74.507812 96 96 74.507812 96 48 C 96 21.492188 74.507812 0 48 0 Z M 48 0 " clip-rule="nonzero"/></clipPath><clipPath id="d328aa7932"><path d="M 0 0 L 96 0 L 96 96 L 0 96 Z M 0 0 " clip-rule="nonzero"/></clipPath><clipPath id="e18f58b2f1"><path d="M 48 0 C 21.492188 0 0 21.492188 0 48 C 0 74.507812 21.492188 96 48 96 C 74.507812 96 96 74.507812 96 48 C 96 21.492188 74.507812 0 48 0 Z M 48 0 " clip-rule="nonzero"/></clipPath><clipPath id="3e2ec00a42"><rect x="0" width="96" y="0" height="96"/></clipPath></defs><g clip-path="url(#9a837e62c5)"><g transform="matrix(1, 0, 0, 1, 0, -0.000000000000008101)"><g clip-path="url(#3e2ec00a42)"><g clip-path="url(#d328aa7932)"><g clip-path="url(#e18f58b2f1)"><rect x="-21.12" width="138.24" fill="#00ffe0" height="138.239999" y="-21.12" fill-opacity="1"/></g></g></g></g></g><g fill="#000807" fill-opacity="1"><g transform="translate(11.34082, 71.249998)"><g><path d="M 32.703125 -7.734375 L 33.484375 -0.953125 C 29.878906 0.160156 25.457031 0.71875 20.21875 0.71875 C 13.820312 0.71875 9.320312 -0.878906 6.71875 -4.078125 C 4.113281 -7.273438 2.8125 -12.8125 2.8125 -20.6875 C 2.8125 -28.570312 4.113281 -34.113281 6.71875 -37.3125 C 9.320312 -40.519531 13.820312 -42.125 20.21875 -42.125 C 24.863281 -42.125 29.003906 -41.660156 32.640625 -40.734375 L 31.859375 -33.90625 C 28.617188 -34.101562 24.738281 -34.203125 20.21875 -34.203125 C 17.21875 -34.203125 15.164062 -33.25 14.0625 -31.34375 C 12.96875 -29.445312 12.421875 -25.898438 12.421875 -20.703125 C 12.421875 -15.503906 12.96875 -11.953125 14.0625 -10.046875 C 15.164062 -8.148438 17.21875 -7.203125 20.21875 -7.203125 C 25.78125 -7.203125 29.941406 -7.378906 32.703125 -7.734375 Z M 32.703125 -7.734375 "/></g></g></g><g fill="#000807" fill-opacity="1"><g transform="translate(46.493978, 71.249998)"><g><path d="M 37.734375 -41.40625 L 26.515625 -2.515625 C 26.316406 -1.753906 25.925781 -1.144531 25.34375 -0.6875 C 24.769531 -0.226562 24.082031 0 23.28125 0 L 14.9375 0 C 14.132812 0 13.441406 -0.226562 12.859375 -0.6875 C 12.285156 -1.144531 11.898438 -1.753906 11.703125 -2.515625 L 0.421875 -41.40625 L 9.84375 -41.40625 L 17.34375 -11.515625 C 17.738281 -9.921875 18.078125 -8.382812 18.359375 -6.90625 L 19.859375 -6.90625 C 19.984375 -7.664062 20.320312 -9.203125 20.875 -11.515625 L 28.3125 -41.40625 Z M 37.734375 -41.40625 "/></g></g></g></svg>