<svg xmlns="http://www.w3.org/2000/svg" xmlns:xlink="http://www.w3.org/1999/xlink" width="128" zoomAndPan="magnify" viewBox="0 0 96 95.999999" height="128" preserveAspectRatio="xMidYMid meet" version="1.0"><defs><clipPath id="f5d4b848bf"><path d="M 13.527344 26 L 50 26 L 50 78 L 13.527344 78 Z M 13.527344 26 " clip-rule="nonzero"/></clipPath><clipPath id="e3cdda4030"><path d="M 13.527344 20 L 82.527344 20 L 82.527344 96 L 13.527344 96 Z M 13.527344 20 " clip-rule="nonzero"/></clipPath><clipPath id="f536ffa8de"><path d="M 13.527344 0 L 41 0 L 41 78 L 13.527344 78 Z M 13.527344 0 " clip-rule="nonzero"/></clipPath></defs><path fill="#ffa000" d="M 58.976562 35.054688 L 49.421875 43.9375 L 40.550781 26.066406 L 45.140625 15.785156 C 46.335938 13.699219 48.199219 13.722656 49.359375 15.785156 Z M 58.976562 35.054688 " fill-opacity="1" fill-rule="nonzero"/><g clip-path="url(#f5d4b848bf)"><path fill="#f57f17" d="M 40.550781 26.066406 L 49.421875 43.9375 L 13.703125 77.136719 Z M 40.550781 26.066406 " fill-opacity="1" fill-rule="nonzero"/></g><g clip-path="url(#e3cdda4030)"><path fill="#ffca28" d="M 69.429688 21.476562 C 71.136719 19.835938 72.902344 20.394531 73.355469 22.71875 L 82.652344 76.695312 L 51.835938 95.179688 C 50.761719 95.777344 47.894531 96.03125 47.894531 96.03125 C 47.894531 96.03125 45.289062 95.722656 44.292969 95.136719 L 13.703125 77.136719 Z M 69.429688 21.476562 " fill-opacity="1" fill-rule="nonzero"/></g><g clip-path="url(#f536ffa8de)"><path fill="#ffa000" d="M 40.550781 26.066406 L 13.707031 77.136719 L 25.664062 2.5 C 26.105469 0.171875 27.429688 -0.0507812 28.609375 2 Z M 40.550781 26.066406 " fill-opacity="1" fill-rule="nonzero"/></g></svg>