<svg xmlns="http://www.w3.org/2000/svg" xmlns:xlink="http://www.w3.org/1999/xlink" width="128" zoomAndPan="magnify" viewBox="0 0 96 95.999999" height="128" preserveAspectRatio="xMidYMid meet" version="1.0"><path fill="#f03c2e" d="M 94.1875 43.726562 L 52.273438 1.8125 C 51.988281 1.523438 51.675781 1.269531 51.339844 1.042969 C 51 0.816406 50.644531 0.625 50.269531 0.472656 C 49.894531 0.316406 49.507812 0.199219 49.109375 0.121094 C 48.710938 0.0390625 48.308594 0 47.902344 0 C 47.5 0 47.097656 0.0390625 46.699219 0.121094 C 46.300781 0.199219 45.914062 0.316406 45.539062 0.472656 C 45.164062 0.625 44.808594 0.816406 44.46875 1.042969 C 44.132812 1.269531 43.820312 1.523438 43.53125 1.8125 L 34.832031 10.511719 L 45.871094 21.550781 C 48.441406 20.652344 51.382812 21.265625 53.425781 23.3125 C 53.914062 23.800781 54.324219 24.347656 54.65625 24.949219 C 54.992188 25.554688 55.234375 26.191406 55.390625 26.863281 C 55.542969 27.535156 55.601562 28.214844 55.5625 28.902344 C 55.527344 29.589844 55.394531 30.261719 55.171875 30.910156 L 65.8125 41.554688 C 68.386719 40.664062 71.355469 41.238281 73.410156 43.300781 C 73.75 43.640625 74.058594 44.011719 74.324219 44.414062 C 74.59375 44.816406 74.820312 45.238281 75.007812 45.6875 C 75.191406 46.132812 75.332031 46.59375 75.425781 47.066406 C 75.519531 47.539062 75.566406 48.019531 75.566406 48.503906 C 75.566406 48.984375 75.519531 49.464844 75.425781 49.9375 C 75.332031 50.414062 75.191406 50.871094 75.007812 51.320312 C 74.820312 51.765625 74.59375 52.191406 74.328125 52.59375 C 74.058594 52.992188 73.753906 53.367188 73.410156 53.707031 C 73.070312 54.046875 72.699219 54.355469 72.296875 54.621094 C 71.894531 54.890625 71.46875 55.117188 71.023438 55.300781 C 70.578125 55.488281 70.117188 55.625 69.640625 55.71875 C 69.167969 55.816406 68.691406 55.863281 68.207031 55.863281 C 67.722656 55.859375 67.246094 55.8125 66.769531 55.71875 C 66.296875 55.625 65.835938 55.484375 65.390625 55.300781 C 64.945312 55.113281 64.519531 54.886719 64.117188 54.617188 C 63.714844 54.351562 63.34375 54.046875 63.003906 53.703125 C 60.84375 51.542969 60.308594 48.363281 61.402344 45.703125 L 51.476562 35.777344 L 51.476562 61.894531 C 52.203125 62.25 52.851562 62.714844 53.425781 63.285156 C 53.769531 63.625 54.074219 64 54.34375 64.398438 C 54.609375 64.800781 54.835938 65.226562 55.023438 65.671875 C 55.207031 66.117188 55.347656 66.578125 55.441406 67.050781 C 55.535156 67.527344 55.582031 68.003906 55.582031 68.488281 C 55.582031 68.96875 55.535156 69.449219 55.441406 69.921875 C 55.347656 70.394531 55.207031 70.855469 55.023438 71.300781 C 54.835938 71.75 54.609375 72.171875 54.34375 72.574219 C 54.074219 72.976562 53.769531 73.347656 53.425781 73.6875 C 53.085938 74.03125 52.714844 74.335938 52.3125 74.605469 C 51.910156 74.871094 51.488281 75.097656 51.039062 75.285156 C 50.59375 75.46875 50.132812 75.609375 49.660156 75.703125 C 49.1875 75.796875 48.707031 75.84375 48.226562 75.84375 C 47.742188 75.84375 47.261719 75.796875 46.789062 75.703125 C 46.316406 75.609375 45.855469 75.46875 45.410156 75.285156 C 44.964844 75.097656 44.539062 74.871094 44.136719 74.605469 C 43.734375 74.335938 43.363281 74.03125 43.023438 73.6875 C 42.679688 73.347656 42.375 72.976562 42.105469 72.574219 C 41.839844 72.171875 41.613281 71.75 41.425781 71.304688 C 41.242188 70.855469 41.101562 70.394531 41.007812 69.921875 C 40.914062 69.449219 40.867188 68.96875 40.867188 68.488281 C 40.867188 68.003906 40.914062 67.523438 41.007812 67.050781 C 41.101562 66.578125 41.242188 66.117188 41.425781 65.671875 C 41.613281 65.226562 41.839844 64.800781 42.105469 64.398438 C 42.375 63.996094 42.679688 63.625 43.023438 63.285156 C 43.734375 62.578125 44.523438 62.039062 45.433594 61.679688 L 45.433594 35.320312 C 44.554688 34.960938 43.734375 34.429688 43.023438 33.71875 C 42.507812 33.199219 42.078125 32.621094 41.734375 31.976562 C 41.390625 31.332031 41.148438 30.652344 41.003906 29.9375 C 40.863281 29.21875 40.832031 28.5 40.90625 27.773438 C 40.980469 27.046875 41.15625 26.347656 41.4375 25.675781 L 30.550781 14.789062 L 1.808594 43.5 C 1.523438 43.785156 1.265625 44.097656 1.039062 44.4375 C 0.8125 44.773438 0.621094 45.128906 0.46875 45.503906 C 0.3125 45.882812 0.195312 46.269531 0.117188 46.664062 C 0.0351562 47.0625 -0.00390625 47.464844 -0.00390625 47.871094 C -0.00390625 48.277344 0.0351562 48.679688 0.117188 49.078125 C 0.195312 49.476562 0.3125 49.863281 0.46875 50.238281 C 0.621094 50.613281 0.8125 50.96875 1.039062 51.308594 C 1.265625 51.644531 1.523438 51.957031 1.808594 52.246094 L 43.726562 94.15625 C 44.011719 94.441406 44.324219 94.699219 44.660156 94.925781 C 45 95.148438 45.355469 95.339844 45.730469 95.496094 C 46.105469 95.652344 46.492188 95.769531 46.890625 95.847656 C 47.289062 95.925781 47.691406 95.964844 48.097656 95.964844 C 48.5 95.964844 48.902344 95.925781 49.300781 95.847656 C 49.699219 95.769531 50.085938 95.652344 50.460938 95.496094 C 50.835938 95.339844 51.191406 95.148438 51.53125 94.925781 C 51.867188 94.699219 52.179688 94.441406 52.46875 94.15625 L 94.1875 52.5 C 94.476562 52.214844 94.730469 51.902344 94.957031 51.5625 C 95.183594 51.226562 95.375 50.871094 95.53125 50.496094 C 95.683594 50.117188 95.800781 49.730469 95.882812 49.335938 C 95.960938 48.9375 96 48.535156 96 48.128906 C 96 47.722656 95.960938 47.320312 95.882812 46.921875 C 95.800781 46.523438 95.683594 46.136719 95.53125 45.761719 C 95.375 45.386719 95.183594 45.03125 94.957031 44.691406 C 94.730469 44.355469 94.476562 44.042969 94.1875 43.753906 " fill-opacity="1" fill-rule="nonzero"/></svg>