<svg xmlns="http://www.w3.org/2000/svg" xmlns:xlink="http://www.w3.org/1999/xlink" width="128" zoomAndPan="magnify" viewBox="0 0 96 95.999999" height="128" preserveAspectRatio="xMidYMid meet" version="1.0"><defs><clipPath id="213bf3c2d8"><path d="M 0 0.699219 L 76 0.699219 L 76 80 L 0 80 Z M 0 0.699219 " clip-rule="nonzero"/></clipPath></defs><path fill="#83cd29" d="M 78.992188 40.121094 L 48.6875 57.167969 C 48.140625 57.484375 47.464844 57.484375 46.90625 57.167969 L 16.597656 40.121094 C 15.410156 39.457031 15.410156 37.761719 16.597656 37.082031 L 46.90625 20.035156 C 47.449219 19.71875 48.125 19.71875 48.6875 20.035156 L 78.992188 37.082031 C 80.179688 37.746094 80.179688 39.441406 78.992188 40.121094 Z M 78.992188 40.121094 " fill-opacity="1" fill-rule="nonzero"/><path fill="#83cd29" d="M 73.746094 45.855469 L 73.746094 59.90625 C 73.746094 60.542969 73.410156 61.113281 72.847656 61.429688 L 48.6875 75.019531 C 48.140625 75.335938 47.464844 75.335938 46.90625 75.019531 L 22.742188 61.429688 C 22.179688 61.113281 21.84375 60.542969 21.84375 59.90625 L 21.84375 45.855469 L 35.242188 53.382812 L 46.90625 59.957031 C 47.449219 60.273438 48.125 60.273438 48.6875 59.957031 L 60.351562 53.382812 Z M 73.746094 45.855469 " fill-opacity="1" fill-rule="nonzero"/><path fill="#83cd29" d="M 87.867188 22.667969 L 88.699219 22.097656 C 89.710938 21.398438 89.582031 19.894531 88.476562 19.371094 L 81.832031 16.25 C 80.710938 15.726562 79.441406 16.597656 79.539062 17.820312 L 80.179688 25.058594 C 80.292969 26.261719 81.6875 26.910156 82.699219 26.214844 L 83.886719 25.40625 C 94.445312 42.199219 91.605469 64.566406 76.84375 78.1875 C 62.324219 91.589844 39.941406 93.21875 23.625 82.070312 C 22.53125 81.324219 21.023438 81.59375 20.269531 82.671875 C 19.515625 83.746094 19.789062 85.238281 20.878906 85.980469 C 28.949219 91.492188 38.335938 94.203125 47.707031 94.203125 C 59.433594 94.203125 71.132812 89.957031 80.132812 81.65625 C 96.609375 66.433594 99.785156 41.390625 87.867188 22.667969 Z M 87.867188 22.667969 " fill-opacity="1" fill-rule="nonzero"/><g clip-path="url(#213bf3c2d8)"><path fill="#83cd29" d="M 74.710938 9.074219 C 56.546875 -3.34375 31.628906 -1.523438 15.457031 13.398438 C -1.4375 29.003906 -4.46875 53.9375 8.125 72.976562 L 6.953125 73.769531 C 5.941406 74.464844 6.070312 75.96875 7.179688 76.492188 L 13.820312 79.613281 C 14.945312 80.136719 16.210938 79.265625 16.117188 78.046875 L 15.472656 70.804688 C 15.359375 69.601562 13.964844 68.953125 12.953125 69.648438 L 12.089844 70.25 C 0.890625 53.160156 3.601562 30.839844 18.746094 16.867188 C 33.265625 3.46875 55.648438 1.820312 71.964844 12.988281 C 73.058594 13.730469 74.566406 13.464844 75.320312 12.386719 C 76.074219 11.308594 75.800781 9.820312 74.710938 9.074219 Z M 74.710938 9.074219 " fill-opacity="1" fill-rule="nonzero"/></g></svg>