<svg xmlns="http://www.w3.org/2000/svg" xmlns:xlink="http://www.w3.org/1999/xlink" width="128" zoomAndPan="magnify" viewBox="0 0 96 95.999999" height="128" preserveAspectRatio="xMidYMid meet" version="1.0"><defs><clipPath id="ca6bbdd215"><path d="M 5.933594 0 L 89.933594 0 L 89.933594 96 L 5.933594 96 Z M 5.933594 0 " clip-rule="nonzero"/></clipPath></defs><g clip-path="url(#ca6bbdd215)"><path fill="#e44d26" d="M 13.558594 86.191406 L 5.910156 0.269531 L 89.957031 0.269531 L 82.304688 86.179688 L 47.882812 95.734375 Z M 13.558594 86.191406 " fill-opacity="1" fill-rule="nonzero"/></g><path fill="#f16529" d="M 75.746094 80.707031 L 82.292969 7.296875 L 47.933594 7.296875 L 47.933594 88.433594 Z M 75.746094 80.707031 " fill-opacity="1" fill-rule="nonzero"/><path fill="#ebebeb" d="M 47.898438 17.832031 L 21.550781 17.832031 L 24.386719 49.699219 L 47.933594 49.699219 L 47.933594 39.164062 L 34.011719 39.164062 L 33.050781 28.371094 L 47.933594 28.371094 L 47.933594 17.832031 Z M 47.933594 66.496094 L 47.890625 66.507812 L 36.171875 63.339844 L 35.425781 54.9375 L 24.859375 54.9375 L 26.332031 71.480469 L 47.886719 77.449219 L 47.933594 77.433594 Z M 47.933594 66.496094 " fill-opacity="1" fill-rule="nonzero"/><path fill="#ffffff" d="M 47.898438 49.699219 L 60.855469 49.699219 L 59.664062 63.363281 L 47.929688 66.535156 L 47.929688 77.5 L 69.5 71.511719 L 72.390625 39.15625 L 47.933594 39.15625 Z M 74.003906 20.660156 L 74.253906 17.832031 L 47.894531 17.832031 L 47.894531 28.371094 L 73.308594 28.371094 L 73.515625 26 Z M 74.003906 20.660156 " fill-opacity="1" fill-rule="nonzero"/></svg>