<svg xmlns="http://www.w3.org/2000/svg" xmlns:xlink="http://www.w3.org/1999/xlink" width="128" zoomAndPan="magnify" viewBox="0 0 96 95.999999" height="128" preserveAspectRatio="xMidYMid meet" version="1.0"><defs><clipPath id="c12b572ca6"><path d="M 3.230469 0 L 92.480469 0 L 92.480469 96 L 3.230469 96 Z M 3.230469 0 " clip-rule="nonzero"/></clipPath></defs><g clip-path="url(#c12b572ca6)"><path fill="#ffd040" d="M 3.230469 0.0351562 C 33.09375 0.0351562 62.894531 0.0351562 92.761719 0.0351562 C 92.761719 32.035156 92.761719 64.03125 92.761719 95.964844 C 62.957031 95.964844 33.09375 95.964844 3.230469 95.964844 C 3.230469 63.902344 3.230469 31.96875 3.230469 0.0351562 Z M 83.328125 50.816406 C 81.515625 47.320312 79.039062 44.921875 75.472656 44.082031 C 72.933594 43.433594 70.394531 43.433594 67.855469 44.015625 C 59.632812 45.832031 56.125 56.453125 61.445312 63.511719 C 63.320312 65.972656 65.796875 67.464844 68.398438 68.757812 C 70.695312 69.925781 73.050781 71.027344 75.351562 72.257812 C 76.921875 73.097656 77.585938 74.652344 77.40625 76.53125 C 77.222656 78.410156 76.015625 79.445312 74.503906 80.03125 C 71.117188 81.324219 67.1875 80.160156 64.890625 77.113281 C 64.40625 76.46875 63.925781 75.753906 63.441406 75.042969 C 61.144531 76.46875 58.90625 77.828125 56.667969 79.253906 C 58.058594 82.167969 59.996094 84.5 62.65625 86.054688 C 67.1875 88.707031 71.964844 89.097656 76.859375 87.800781 C 80.066406 86.960938 82.785156 85.210938 84.476562 82.039062 C 87.621094 76.011719 85.808594 68.5 80.246094 64.808594 C 77.769531 63.1875 74.988281 62.085938 72.386719 60.664062 C 71.117188 59.949219 69.789062 59.300781 68.699219 58.394531 C 66.765625 56.710938 67.128906 53.34375 69.304688 52.046875 C 71.421875 50.753906 74.382812 51.53125 76.015625 53.796875 C 76.378906 54.25 76.621094 54.769531 76.980469 55.285156 C 79.039062 53.796875 81.152344 52.308594 83.328125 50.816406 Z M 26.804688 80.222656 C 28.015625 83.007812 29.769531 85.210938 32.246094 86.636719 C 35.449219 88.515625 38.957031 88.839844 42.523438 88.253906 C 45.726562 87.738281 48.386719 86.183594 50.140625 83.074219 C 51.589844 80.484375 52.015625 77.632812 52.015625 74.589844 C 52.015625 64.742188 52.015625 54.898438 52.015625 45.054688 C 52.015625 44.792969 52.015625 44.46875 52.015625 44.144531 C 49.171875 44.144531 46.453125 44.144531 43.613281 44.144531 C 43.613281 44.535156 43.613281 44.859375 43.613281 45.246094 C 43.613281 54.964844 43.613281 64.613281 43.613281 74.328125 C 43.613281 75.234375 43.550781 76.207031 43.429688 77.113281 C 43.1875 78.605469 42.464844 79.707031 41.074219 80.160156 C 38.472656 81 36.359375 80.160156 34.847656 77.761719 C 34.484375 77.113281 34.121094 76.46875 33.699219 75.820312 C 31.339844 77.308594 29.101562 78.734375 26.804688 80.222656 Z M 26.804688 80.222656 " fill-opacity="1" fill-rule="nonzero"/></g></svg>