<svg xmlns="http://www.w3.org/2000/svg" xmlns:xlink="http://www.w3.org/1999/xlink" width="128" zoomAndPan="magnify" viewBox="0 0 96 95.999999" height="128" preserveAspectRatio="xMidYMid meet" version="1.0"><path fill="#00ffe0" d="M 48 0 C 21.492188 0 0 21.492188 0 48 C 0 74.511719 21.492188 96 48 96 C 50.902344 96 53.746094 95.742188 56.507812 95.25 C 74.894531 91.960938 89.652344 78.199219 94.390625 60.359375 C 95.441406 56.417969 96 52.273438 96 48 C 96 21.492188 74.507812 0 48 0 Z M 62.789062 38.246094 C 62.789062 43.757812 59.769531 48.566406 55.296875 51.109375 L 62.191406 72.546875 L 33.808594 72.546875 L 40.703125 51.109375 C 36.230469 48.566406 33.210938 43.757812 33.210938 38.246094 C 33.210938 30.078125 39.832031 23.457031 48 23.457031 C 53.027344 23.457031 57.46875 25.964844 60.140625 29.796875 C 61.808594 32.191406 62.785156 35.105469 62.785156 38.246094 Z M 62.789062 38.246094 " fill-opacity="1" fill-rule="nonzero"/></svg>