<svg xmlns="http://www.w3.org/2000/svg" xmlns:xlink="http://www.w3.org/1999/xlink" width="128" zoomAndPan="magnify" viewBox="0 0 96 95.999999" height="128" preserveAspectRatio="xMidYMid meet" version="1.0"><defs><clipPath id="7b949af9f5"><path d="M 48 0 C 21.492188 0 0 21.492188 0 48 C 0 74.507812 21.492188 96 48 96 C 74.507812 96 96 74.507812 96 48 C 96 21.492188 74.507812 0 48 0 Z M 48 0 " clip-rule="nonzero"/></clipPath><clipPath id="763eb0cf0f"><path d="M 14.316406 14.179688 L 81.683594 14.179688 L 81.683594 81.820312 L 14.316406 81.820312 Z M 14.316406 14.179688 " clip-rule="nonzero"/></clipPath><clipPath id="79f61f0f98"><path d="M 14.316406 14.179688 L 81.683594 14.179688 L 81.683594 82 L 14.316406 82 Z M 14.316406 14.179688 " clip-rule="nonzero"/></clipPath><clipPath id="a41d12fe96"><path d="M 48 81.820312 L 81.683594 14.179688 L 14.316406 14.179688 Z M 48 81.820312 " clip-rule="nonzero"/></clipPath></defs><g clip-path="url(#7b949af9f5)"><rect x="-9.6" width="115.2" fill="#808080" y="-9.6" height="115.199999" fill-opacity="1"/></g><g clip-path="url(#763eb0cf0f)"><path fill="#cbc6c6" d="M 14.316406 14.179688 L 81.683594 14.179688 L 81.683594 81.808594 L 14.316406 81.808594 Z M 14.316406 14.179688 " fill-opacity="1" fill-rule="nonzero"/></g><g clip-path="url(#79f61f0f98)"><g clip-path="url(#a41d12fe96)"><path fill="#ffffff" d="M 14.316406 14.179688 L 81.683594 14.179688 L 81.683594 81.808594 L 14.316406 81.808594 Z M 14.316406 14.179688 " fill-opacity="1" fill-rule="nonzero"/></g></g></svg>