<svg xmlns="http://www.w3.org/2000/svg" xmlns:xlink="http://www.w3.org/1999/xlink" width="128" zoomAndPan="magnify" viewBox="0 0 96 95.999999" height="128" preserveAspectRatio="xMidYMid meet" version="1.0"><path fill="#83cd29" d="M 84.578125 22.75 L 51.503906 3.546875 C 49.417969 2.359375 46.703125 2.359375 44.601562 3.546875 L 11.175781 22.75 C 9.023438 23.988281 7.5 26.316406 7.5 28.804688 L 7.5 67.160156 C 7.5 69.652344 9.0625 71.980469 11.214844 73.222656 L 20.046875 78.238281 C 24.269531 80.320312 25.757812 80.320312 27.679688 80.320312 C 33.929688 80.320312 37.5 76.539062 37.5 69.949219 L 37.5 32.082031 C 37.5 31.546875 37.222656 30.75 36.695312 30.75 L 32.480469 30.75 C 31.945312 30.75 30.75 31.546875 30.75 32.078125 L 30.75 69.945312 C 30.75 72.871094 28.105469 75.777344 23.167969 73.308594 L 14.042969 68.046875 C 13.722656 67.875 13.5 67.527344 13.5 67.160156 L 13.5 28.804688 C 13.5 28.445312 13.917969 28.082031 14.238281 27.894531 L 47.554688 8.726562 C 47.867188 8.546875 48.324219 8.546875 48.632812 8.726562 L 81.546875 27.890625 C 81.859375 28.082031 81.75 28.433594 81.75 28.804688 L 81.75 67.160156 C 81.75 67.527344 81.886719 67.882812 81.574219 68.058594 L 48.511719 87.242188 C 48.226562 87.414062 47.875 87.414062 47.566406 87.242188 L 39.085938 82.179688 C 38.828125 82.03125 38.523438 81.980469 38.28125 82.117188 C 35.921875 83.453125 35.484375 83.632812 33.273438 84.398438 C 32.726562 84.589844 31.925781 84.917969 33.578125 85.84375 L 44.679688 92.410156 C 45.742188 93.027344 46.949219 93.34375 48.164062 93.34375 C 49.394531 93.34375 50.601562 93.027344 51.664062 92.410156 L 84.578125 73.222656 C 86.730469 71.96875 87.75 69.652344 87.75 67.160156 L 87.75 28.804688 C 87.75 26.316406 86.730469 23.996094 84.578125 22.75 Z M 58.433594 61.082031 C 49.636719 61.082031 47.699219 58.65625 47.054688 54.285156 C 46.980469 53.8125 46.582031 53.25 46.101562 53.25 L 41.804688 53.25 C 41.269531 53.25 40.84375 53.894531 40.84375 54.425781 C 40.84375 60.023438 43.886719 66.808594 58.433594 66.808594 C 68.960938 66.808594 75 62.71875 75 55.476562 C 75 48.296875 70.148438 46.414062 59.9375 45.0625 C 49.617188 43.699219 48.566406 43.007812 48.566406 40.589844 C 48.566406 38.597656 49.457031 35.9375 57.097656 35.9375 C 63.925781 35.9375 66.445312 37.402344 67.480469 42.007812 C 67.566406 42.441406 67.964844 42.75 68.410156 42.75 L 72.726562 42.75 C 72.992188 42.75 73.246094 42.644531 73.429688 42.453125 C 73.609375 42.25 73.707031 41.992188 73.679688 41.71875 C 73.011719 33.792969 67.746094 30.097656 57.097656 30.097656 C 47.625 30.097656 41.972656 34.097656 41.972656 40.804688 C 41.972656 48.078125 47.597656 50.089844 56.691406 50.988281 C 67.566406 52.054688 68.414062 53.644531 68.414062 55.785156 C 68.414062 59.5 65.429688 61.082031 58.433594 61.082031 Z M 58.433594 61.082031 " fill-opacity="1" fill-rule="nonzero"/></svg>