<svg xmlns="http://www.w3.org/2000/svg" xmlns:xlink="http://www.w3.org/1999/xlink" width="128" zoomAndPan="magnify" viewBox="0 0 96 95.999999" height="128" preserveAspectRatio="xMidYMid meet" version="1.0"><defs><clipPath id="937492cfbc"><path d="M 41 3.121094 L 94 3.121094 L 94 39 L 41 39 Z M 41 3.121094 " clip-rule="nonzero"/></clipPath><clipPath id="b53e5bbd4b"><path d="M 34.394531 73.03125 L 95.957031 73.03125 L 95.957031 93.121094 L 34.394531 93.121094 Z M 34.394531 73.03125 " clip-rule="nonzero"/></clipPath></defs><g clip-path="url(#937492cfbc)"><path fill="#75c0f2" d="M 41.058594 28.90625 L 41.058594 23.308594 C 41.371094 21.484375 41.894531 19.703125 42.617188 17.984375 C 43.839844 15.085938 45.589844 12.480469 47.816406 10.25 C 50.042969 8.015625 52.640625 6.261719 55.53125 5.035156 C 58.527344 3.765625 61.707031 3.117188 64.980469 3.117188 C 68.253906 3.117188 71.433594 3.765625 74.429688 5.035156 C 77.324219 6.261719 79.917969 8.015625 82.144531 10.25 C 84.367188 12.480469 86.121094 15.082031 87.339844 17.984375 C 88.523438 20.777344 89.160156 23.730469 89.242188 26.773438 L 93.902344 26.773438 L 85.410156 38.6875 L 76.921875 26.773438 L 81.554688 26.773438 C 81.195312 17.917969 73.898438 10.824219 64.980469 10.824219 C 56.730469 10.824219 49.863281 16.898438 48.601562 24.820312 L 48.601562 28.90625 L 41.058594 28.90625 " fill-opacity="1" fill-rule="evenodd"/></g><g clip-path="url(#b53e5bbd4b)"><path fill="#75c0f2" d="M 53.835938 78.289062 L 82.027344 78.289062 L 82.027344 73.15625 L 95.957031 83.140625 L 82.027344 93.121094 L 82.027344 87.988281 L 34.621094 87.988281 L 53.835938 78.289062 " fill-opacity="1" fill-rule="evenodd"/></g><path fill="#ff725c" d="M 51.136719 86.410156 C 48.644531 87.460938 45.957031 87.988281 43.25 87.988281 L 0.0546875 87.988281 L 0.0546875 78.289062 L 40.183594 78.289062 C 52.308594 78.289062 62.28125 68.558594 62.433594 56.402344 C 62.433594 56.296875 62.433594 56.195312 62.433594 56.089844 C 62.433594 42.789062 51.679688 32.003906 38.417969 32.003906 C 25.148438 32.003906 14.394531 42.789062 14.394531 56.089844 L 19.960938 56.089844 L 10.007812 70.054688 L 0.0546875 56.089844 L 5.617188 56.089844 C 5.617188 51.652344 6.488281 47.34375 8.199219 43.285156 C 9.851562 39.367188 12.214844 35.851562 15.222656 32.835938 C 18.234375 29.816406 21.738281 27.445312 25.644531 25.789062 C 29.695312 24.070312 33.992188 23.203125 38.417969 23.203125 C 42.839844 23.203125 47.136719 24.070312 51.183594 25.789062 C 55.09375 27.445312 58.597656 29.816406 61.609375 32.835938 C 64.617188 35.851562 66.980469 39.367188 68.632812 43.285156 C 70.347656 47.34375 71.214844 51.652344 71.214844 56.089844 C 71.214844 60.527344 70.347656 64.835938 68.632812 68.894531 C 67.171875 72.363281 65.148438 75.519531 62.613281 78.292969 C 62.289062 78.648438 61.953125 79 61.609375 79.34375 C 61.300781 79.65625 60.984375 79.957031 60.664062 80.253906 C 58.21875 82.519531 55.472656 84.382812 52.472656 85.8125 C 52.050781 86.011719 51.621094 86.203125 51.183594 86.390625 C 51.167969 86.394531 51.152344 86.402344 51.136719 86.410156 " fill-opacity="1" fill-rule="evenodd"/></svg>