<svg xmlns="http://www.w3.org/2000/svg" xmlns:xlink="http://www.w3.org/1999/xlink" width="128" zoomAndPan="magnify" viewBox="0 0 96 95.999999" height="128" preserveAspectRatio="xMidYMid meet" version="1.0"><defs><clipPath id="c2f0cae4e0"><path d="M 3.230469 0 L 92.480469 0 L 92.480469 96 L 3.230469 96 Z M 3.230469 0 " clip-rule="nonzero"/></clipPath></defs><g clip-path="url(#c2f0cae4e0)"><path fill="#0478c6" d="M 92.679688 7.671875 C 92.027344 4.007812 89.378906 1.039062 85.996094 0.253906 C 85.832031 0.210938 85.667969 0.210938 85.464844 0.167969 C 85.425781 0.167969 85.382812 0.0820312 85.34375 0.0351562 L 10.605469 0.0351562 C 10.5625 0.0820312 10.523438 0.167969 10.441406 0.167969 C 7.058594 0.777344 4.207031 3.65625 3.433594 7.320312 C 3.390625 7.453125 3.3125 7.628906 3.230469 7.800781 L 3.230469 88.023438 C 3.269531 88.109375 3.351562 88.15625 3.351562 88.242188 C 4.167969 92.253906 6.449219 94.742188 10.15625 95.746094 C 10.277344 95.789062 10.359375 95.875 10.441406 95.964844 L 85.464844 95.964844 C 85.546875 95.917969 85.589844 95.832031 85.667969 95.789062 C 89.378906 94.871094 91.660156 92.472656 92.597656 88.503906 C 92.636719 88.371094 92.597656 88.199219 92.636719 88.066406 C 92.636719 88.023438 92.71875 87.980469 92.761719 87.9375 L 92.761719 7.933594 C 92.761719 7.84375 92.679688 7.800781 92.679688 7.671875 Z M 55.1875 53.214844 L 54.738281 53.214844 C 51.355469 53.214844 47.933594 53.214844 44.550781 53.214844 C 44.386719 53.214844 44.226562 53.214844 44.0625 53.214844 C 44.0625 53.257812 44.019531 53.257812 44.019531 53.300781 C 44.019531 53.476562 44.019531 53.648438 44.019531 53.824219 L 44.019531 87.457031 L 35.097656 87.457031 L 35.097656 53.257812 L 23.890625 53.257812 L 23.890625 45.621094 L 55.148438 45.621094 L 55.148438 53.214844 Z M 85.261719 76.027344 C 85.179688 77.511719 84.976562 78.949219 84.40625 80.347656 C 84.242188 80.78125 84.121094 81.175781 83.917969 81.609375 C 83.183594 83.269531 81.960938 84.445312 80.535156 85.40625 C 78.90625 86.496094 77.113281 87.109375 75.238281 87.5 C 73.160156 87.9375 71.082031 88.066406 68.960938 87.980469 C 67.941406 87.9375 66.921875 87.9375 65.90625 87.804688 C 63.5 87.5 61.136719 86.933594 58.9375 85.800781 C 58.8125 85.753906 58.652344 85.539062 58.652344 85.40625 C 58.652344 82.570312 58.652344 79.734375 58.652344 76.898438 C 58.652344 76.855469 58.652344 76.8125 58.652344 76.726562 C 59.304688 77.207031 59.957031 77.683594 60.605469 78.078125 C 62.195312 79.082031 63.949219 79.777344 65.742188 80.214844 C 67.289062 80.609375 68.839844 80.652344 70.386719 80.5625 C 71.570312 80.519531 72.75 80.214844 73.8125 79.648438 C 74.75 79.125 75.523438 78.425781 75.726562 77.25 C 75.929688 76.203125 75.847656 75.15625 75.277344 74.238281 C 74.460938 72.929688 73.320312 72.101562 72.058594 71.402344 C 70.632812 70.660156 69.207031 70.007812 67.738281 69.308594 C 65.578125 68.261719 63.460938 67.128906 61.707031 65.382812 C 60.28125 63.945312 59.222656 62.242188 58.734375 60.191406 C 58.449219 58.972656 58.367188 57.75 58.40625 56.527344 C 58.449219 53.519531 59.464844 50.945312 61.464844 48.808594 C 63.09375 47.0625 65.089844 46.015625 67.289062 45.40625 C 68.796875 45.011719 70.304688 44.707031 71.855469 44.664062 C 72.953125 44.664062 74.054688 44.53125 75.113281 44.574219 C 76.785156 44.621094 78.414062 44.707031 80.046875 45.144531 C 81.105469 45.449219 82.207031 45.753906 83.265625 46.015625 C 83.46875 46.058594 83.550781 46.191406 83.550781 46.453125 C 83.550781 49.15625 83.550781 51.902344 83.550781 54.609375 C 83.550781 54.695312 83.550781 54.785156 83.507812 54.914062 C 83.183594 54.695312 82.898438 54.523438 82.613281 54.347656 C 81.308594 53.5625 79.921875 53.039062 78.496094 52.644531 C 76.90625 52.253906 75.320312 51.992188 73.6875 52.035156 C 72.589844 52.078125 71.449219 52.253906 70.429688 52.644531 C 69.164062 53.125 68.144531 53.910156 67.699219 55.351562 C 67.332031 56.484375 67.617188 57.445312 68.269531 58.359375 C 69.082031 59.496094 70.183594 60.28125 71.367188 60.890625 C 72.953125 61.71875 74.585938 62.417969 76.132812 63.203125 C 77.925781 64.117188 79.71875 65.035156 81.226562 66.386719 C 82.53125 67.566406 83.714844 68.875 84.367188 70.617188 C 84.730469 71.664062 85.058594 72.757812 85.058594 73.933594 C 85.222656 74.632812 85.304688 75.328125 85.261719 76.027344 Z M 85.261719 76.027344 " fill-opacity="1" fill-rule="nonzero"/></g></svg>